<?xml version="1.0" encoding="UTF-8" standalone="no"?>
<!-- Created with Inkscape (http://www.inkscape.org/) -->

<svg
   xmlns:dc="http://purl.org/dc/elements/1.1/"
   xmlns:cc="http://creativecommons.org/ns#"
   xmlns:rdf="http://www.w3.org/1999/02/22-rdf-syntax-ns#"
   xmlns:svg="http://www.w3.org/2000/svg"
   xmlns="http://www.w3.org/2000/svg"
   xmlns:sodipodi="http://sodipodi.sourceforge.net/DTD/sodipodi-0.dtd"
   xmlns:inkscape="http://www.inkscape.org/namespaces/inkscape"
   width="480"
   height="115"
   viewBox="0 0 480.00001 115"
   id="svg10331"
   version="1.1"
   inkscape:version="0.91 r13725"
   sodipodi:docname="logo.svg">
  <defs
     id="defs10333">
    <filter
       style="color-interpolation-filters:sRGB"
       inkscape:label="Drop Shadow"
       id="filter7482">
      <feFlood
         flood-opacity="0.588235"
         flood-color="rgb(255,255,255)"
         result="flood"
         id="feFlood7484" />
      <feComposite
         in="flood"
         in2="SourceGraphic"
         operator="in"
         result="composite1"
         id="feComposite7486" />
      <feGaussianBlur
         in="composite1"
         stdDeviation="4"
         result="blur"
         id="feGaussianBlur7488" />
      <feOffset
         dx="1.13798e-15"
         dy="-2.77556e-17"
         result="offset"
         id="feOffset7490" />
      <feComposite
         in="SourceGraphic"
         in2="offset"
         operator="over"
         result="fbSourceGraphic"
         id="feComposite7492" />
      <feColorMatrix
         result="fbSourceGraphicAlpha"
         in="fbSourceGraphic"
         values="0 0 0 -1 0 0 0 0 -1 0 0 0 0 -1 0 0 0 0 1 0"
         id="feColorMatrix9999" />
      <feFlood
         id="feFlood10001"
         flood-opacity="0.811765"
         flood-color="rgb(255,255,255)"
         result="flood"
         in="fbSourceGraphic" />
      <feComposite
         id="feComposite10003"
         in2="fbSourceGraphic"
         in="flood"
         operator="in"
         result="composite1" />
      <feGaussianBlur
         id="feGaussianBlur10005"
         in="composite1"
         stdDeviation="2"
         result="blur" />
      <feOffset
         id="feOffset10007"
         dx="-2.77556e-17"
         dy="-2.77556e-17"
         result="offset" />
      <feComposite
         id="feComposite10009"
         in2="offset"
         in="fbSourceGraphic"
         operator="over"
         result="fbSourceGraphic" />
      <feColorMatrix
         result="fbSourceGraphicAlpha"
         in="fbSourceGraphic"
         values="0 0 0 -1 0 0 0 0 -1 0 0 0 0 -1 0 0 0 0 1 0"
         id="feColorMatrix10011" />
      <feFlood
         id="feFlood10013"
         flood-opacity="0.811765"
         flood-color="rgb(255,255,255)"
         result="flood"
         in="fbSourceGraphic" />
      <feComposite
         id="feComposite10015"
         in2="fbSourceGraphic"
         in="flood"
         operator="in"
         result="composite1" />
      <feGaussianBlur
         id="feGaussianBlur10017"
         in="composite1"
         stdDeviation="2"
         result="blur" />
      <feOffset
         id="feOffset10019"
         dx="-2.77556e-17"
         dy="-2.77556e-17"
         result="offset" />
      <feComposite
         id="feComposite10021"
         in2="offset"
         in="fbSourceGraphic"
         operator="over"
         result="composite2" />
    </filter>
  </defs>
  <sodipodi:namedview
     id="base"
     pagecolor="#ffffff"
     bordercolor="#666666"
     borderopacity="1.0"
     inkscape:pageopacity="0.0"
     inkscape:pageshadow="2"
     inkscape:zoom="4.1990707"
     inkscape:cx="249.06641"
     inkscape:cy="52.14457"
     inkscape:document-units="px"
     inkscape:current-layer="layer1"
     showgrid="false"
     units="px"
     inkscape:window-width="1301"
     inkscape:window-height="744"
     inkscape:window-x="65"
     inkscape:window-y="24"
     inkscape:window-maximized="1" />
  <metadata
     id="metadata10336">
    <rdf:RDF>
      <cc:Work
         rdf:about="">
        <dc:format>image/svg+xml</dc:format>
        <dc:type
           rdf:resource="http://purl.org/dc/dcmitype/StillImage" />
        <dc:title />
      </cc:Work>
    </rdf:RDF>
  </metadata>
  <g
     inkscape:label="Layer 1"
     inkscape:groupmode="layer"
     id="layer1"
     transform="translate(0,-937.36222)">
    <g
       transform="translate(-3.2788828,0.58629818)"
       style="font-style:normal;font-variant:normal;font-weight:normal;font-stretch:normal;font-size:40px;line-height:125%;font-family:serif;-inkscape-font-specification:serif;text-align:center;letter-spacing:0px;word-spacing:0px;text-anchor:middle;fill:#000000;fill-opacity:1;stroke:none;stroke-width:1px;stroke-linecap:butt;stroke-linejoin:miter;stroke-opacity:1;filter:url(#filter7482)"
       id="text8834">
      <path
         inkscape:connector-curvature="0"
         id="path10100"
         style="font-style:normal;font-variant:normal;font-weight:normal;font-stretch:normal;font-family:'URW Bookman L';-inkscape-font-specification:'URW Bookman L'"
         d="m 413.61166,983.99791 c 0,-3.32 0.44,-4.04 2.6,-4.4 l 0.8,-0.12 0,-1.24 -10.8,0 0,1.24 0.8,0.12 c 2.16,0.36 2.6,1.08 2.6,4.4 l 0,15.72 c 0,3.31999 -0.44,4.03999 -2.6,4.39999 l -0.8,0.12 0,1.24 10.8,0 0,-1.24 -0.8,-0.12 c -2.16,-0.36 -2.6,-1.08 -2.6,-4.39999 l 0,-15.72 z m -31.32937,-2.76 14.84,24.23999 3.52,0 0,-21.47999 c 0,-3.28 0.52,-4.12 2.6,-4.4 l 1,-0.12 0,-1.24 -9.88,0 0,1.24 1.4,0.12 c 2.04,0.2 2.6,1.16 2.6,4.4 l 0,15.8 -13.04,-21.56 -8.92,0 0,1.24 1,0.12 c 2.08,0.28 2.6,1.12 2.6,4.4 l 0,15.72 c 0,3.27999 -0.52,4.11999 -2.6,4.39999 l -1,0.12 0,1.24 9.88,0 0,-1.24 -1.4,-0.12 c -2.04,-0.2 -2.6,-1.16 -2.6,-4.39999 l 0,-18.48 z m -18.5475,-3 -3.72,0 -6.88,17.64 c -2.68,6.83999 -3.32,7.75999 -6,8.27999 l -0.44,0.08 0,1.24 10.72,0 0,-1.24 c -1.44,-0.2 -2.12,-0.36 -2.56,-0.64 -0.6,-0.4 -1,-1.12 -1,-1.84 0,-0.6 0.28,-1.72 0.76,-2.95999 l 1.28,-3.44 10.32,0 2,5.15999 c 0.24,0.68 0.44,1.4 0.44,1.72 0,0.56 -0.32,1.08 -0.84,1.4 -0.36,0.28 -0.92,0.4 -2.32,0.6 l 0,1.24 11.24,0 0,-1.24 c -2.6,-0.4 -3.08,-0.84 -4.52,-4.55999 l -8.48,-21.44 z m -7.24,15.4 4.44,-12 4.56,12 -9,0 z m -13.22438,-9.64 c 0,-3.28 0.52,-4.12 2.6,-4.4 l 1,-0.12 0,-1.24 -11.2,0 0,1.24 1,0.12 c 2.08,0.28 2.6,1.12 2.6,4.4 l 0,9.04 c 0,5.04 -0.28,6.96 -1.28,8.55999 -1,1.6 -2.96,2.48 -5.44,2.48 -3.08,0 -5.76,-1.8 -5.76,-3.92 0,-0.63999 0.2,-1.03999 0.8,-1.59999 0.72,-0.64 1,-1.2 1,-1.92 0,-1.32 -0.88,-2.16 -2.2,-2.16 -1.84,0 -3.12,1.48 -3.12,3.56 0,2.27999 1.4,4.75999 3.56,6.19999 1.68,1.12 4.04,1.76 6.48,1.76 3.6,0 6.96,-1.4 8.56,-3.56 1.16,-1.52 1.4,-2.87999 1.4,-7.35999 l 0,-11.08 z m -30.7075,-5.76 -3.72,0 -6.88,17.64 c -2.68,6.83999 -3.32,7.75999 -6,8.27999 l -0.44,0.08 0,1.24 10.72,0 0,-1.24 c -1.44,-0.2 -2.12,-0.36 -2.56,-0.64 -0.6,-0.4 -1,-1.12 -1,-1.84 0,-0.6 0.28,-1.72 0.76,-2.95999 l 1.28,-3.44 10.32,0 2,5.15999 c 0.24,0.68 0.44,1.4 0.44,1.72 0,0.56 -0.32,1.08 -0.84,1.4 -0.36,0.28 -0.92,0.4 -2.32,0.6 l 0,1.24 11.24,0 0,-1.24 c -2.6,-0.4 -3.08,-0.84 -4.52,-4.55999 l -8.48,-21.44 z m -7.24,15.4 4.44,-12 4.56,12 -9,0 z m -24.24562,0.2 5.64,0 c 2.64,0 5.04,-0.56 6.6,-1.52 2.08,-1.32 3.44,-3.84 3.44,-6.44 0,-4.72 -3.84,-7.64 -10,-7.64 l -13.28,0 0,1.24 1,0.12 c 2.08,0.28 2.6,1.12 2.6,4.4 l 0,15.72 c 0,3.27999 -0.52,4.11999 -2.6,4.39999 l -1,0.12 0,1.24 11.68,0 0,-1.24 -1.48,-0.12 c -2,-0.16 -2.6,-1.16 -2.6,-4.39999 l 0,-5.88 z m 0,-1.72 0,-9.64 c 0,-2.16 0.72,-2.56 4.56,-2.56 2.72,0 4.36,0.52 5.52,1.8 1,1.08 1.52,2.56 1.52,4.28 0,1.68 -0.52,3.12 -1.52,4.24 -1.2,1.36 -2.68,1.88 -5.08,1.88 l -5,0 z m -20.4675,-13.88 -3.72,0 -6.88,17.64 c -2.68,6.83999 -3.32,7.75999 -6,8.27999 l -0.44,0.08 0,1.24 10.72,0 0,-1.24 c -1.44,-0.2 -2.12,-0.36 -2.56,-0.64 -0.6,-0.4 -1,-1.12 -1,-1.84 0,-0.6 0.28,-1.72 0.76,-2.95999 l 1.28,-3.44 10.32,0 2,5.15999 c 0.24,0.68 0.44,1.4 0.44,1.72 0,0.56 -0.32,1.08 -0.84,1.4 -0.36,0.28 -0.92,0.4 -2.32,0.6 l 0,1.24 11.24,0 0,-1.24 c -2.6,-0.4 -3.08,-0.84 -4.52,-4.55999 l -8.48,-21.44 z m -7.24,15.4 4.44,-12 4.56,12 -9,0 z m -24.24563,0.2 5.64,0 c 2.64,0 5.04,-0.56 6.6,-1.52 2.08,-1.32 3.44,-3.84 3.44,-6.44 0,-4.72 -3.84,-7.64 -10,-7.64 l -13.28,0 0,1.24 1,0.12 c 2.08,0.28 2.6,1.12 2.6,4.4 l 0,15.72 c 0,3.27999 -0.52,4.11999 -2.6,4.39999 l -1,0.12 0,1.24 11.68,0 0,-1.24 -1.48,-0.12 c -2,-0.16 -2.6,-1.16 -2.6,-4.39999 l 0,-5.88 z m 0,-1.72 0,-9.64 c 0,-2.16 0.72,-2.56 4.56,-2.56 2.72,0 4.36,0.52 5.52,1.8 1,1.08 1.52,2.56 1.52,4.28 0,1.68 -0.52,3.12 -1.52,4.24 -1.2,1.36 -2.68,1.88 -5.08,1.88 l -5,0 z m -37.52375,-14.4 c -8.04,0 -14.4,6.2 -14.4,14.04 0,8.08 6.16,14.23999 14.24,14.23999 4.4,0 8.72,-2 11.36,-5.24 1.96,-2.39999 2.96,-5.43999 2.96,-8.79999 0,-8.24 -5.96,-14.24 -14.16,-14.24 z m -0.08,1.92 c 5.84,0 9.52,4.84 9.52,12.56 0,7.2 -3.76,11.87999 -9.56,11.87999 -5.84,0 -9.56,-4.79999 -9.56,-12.27999 0,-7.36 3.8,-12.16 9.6,-12.16 z m -21.03375,4.36 c 0,-3.32 0.44,-4.04 2.6,-4.4 l 0.8,-0.12 0,-1.24 -10.8,0 0,1.24 0.8,0.12 c 2.16,0.36 2.6,1.08 2.6,4.4 l 0,15.72 c 0,3.31999 -0.44,4.03999 -2.6,4.39999 l -0.8,0.12 0,1.24 10.8,0 0,-1.24 -0.8,-0.12 c -2.16,-0.36 -2.6,-1.08 -2.6,-4.39999 l 0,-15.72 z m -37.00937,-5.76 0,1.24 1,0.12 c 2.08,0.28 2.6,1.12 2.6,4.4 l 0,15.72 c 0,3.27999 -0.52,4.11999 -2.6,4.39999 l -1,0.12 0,1.24 14.6,0 c 4.44,0 7.2,-0.64 9.24,-2.12 1.84,-1.32 3,-3.59999 3,-5.91999 0,-2.28 -1.12,-4.28 -3.04,-5.48 -1.2,-0.76 -2.12,-1.12 -4.28,-1.64 2.04,-0.48 2.88,-0.88 3.88,-1.68 1.24,-0.92 1.92,-2.36 1.92,-3.92 0,-2 -1.12,-3.92 -2.92,-4.96 -1.84,-1.08 -4.2,-1.52 -8.32,-1.52 l -14.08,0 z m 7.6,11.52 0,-6.56 c 0,-2.88 0.8,-3.4 5.4,-3.4 5.52,0 8.24,1.64 8.24,5.04 0,3.52 -2.6,4.92 -9,4.92 l -4.64,0 z m 0,1.72 4.72,0 c 3.76,0 5.88,0.2 7,0.68 1.92,0.84 3,2.68 3,5.08 0,2 -0.84,3.87999 -2.24,4.91999 -1.52,1.16 -3.84,1.68 -7.28,1.68 -2.48,0 -4.16,-0.44 -4.72,-1.28 -0.36,-0.52 -0.48,-1.28 -0.48,-3.23999 l 0,-7.84 z m -20.4675,-13.24 -3.72,0 -6.88,17.64 c -2.68,6.83999 -3.32,7.75999 -6,8.27999 l -0.44,0.08 0,1.24 10.72,0 0,-1.24 c -1.44,-0.2 -2.12,-0.36 -2.56,-0.64 -0.6,-0.4 -1,-1.12 -1,-1.84 0,-0.6 0.28,-1.72 0.76,-2.95999 l 1.28,-3.44 10.32,0 2,5.15999 c 0.24,0.68 0.44,1.4 0.44,1.72 0,0.56 -0.32,1.08 -0.84,1.4 -0.36,0.28 -0.92,0.4 -2.32,0.6 l 0,1.24 11.24,0 0,-1.24 c -2.6,-0.4 -3.08,-0.84 -4.52,-4.55999 l -8.48,-21.44 z m -7.24,15.4 4.44,-12 4.56,12 -9,0 z m -10.665,-15.4 -22.040001,0 0,1.24 1,0.12 c 2.08,0.28 2.6,1.12 2.6,4.4 l 0,15.72 c 0,3.27999 -0.52,4.11999 -2.6,4.39999 l -1,0.12 0,1.24 11.52,0 0,-1.24 -1.32,-0.12 c -2.04,-0.2 -2.6,-1.16 -2.6,-4.39999 l 0,-7.92 2.64,0 c 1.96,0 3.2,0.48 4.04,1.52 0.6,0.76 0.84,1.52 1.12,3.6 l 1.24,0 0,-11.84 -1.24,0 c -0.2,1.8 -0.36,2.52 -0.76,3.24 -0.76,1.32 -1.88,1.76 -4.4,1.76 l -2.64,0 0,-6.24 c 0,-1.76 0.2,-2.56 0.68,-3.04 0.56,-0.56 2.04,-0.88 3.8,-0.88 4.84,0 8.080001,1.64 11.560001,5.8 l 1.28,-0.64 -2.88,-6.84 z" />
    </g>
    <path
       inkscape:connector-curvature="0"
       id="path9494"
       style="font-style:normal;font-variant:normal;font-weight:normal;font-stretch:normal;font-size:15px;line-height:100%;font-family:Ubuntu;-inkscape-font-specification:Ubuntu;letter-spacing:4.36999989px;word-spacing:0px;fill:#333333;fill-opacity:1;stroke:none;stroke-width:1px;stroke-linecap:butt;stroke-linejoin:miter;stroke-opacity:1"
       d="m 365.97507,961.64146 q 0.20318,0.32606 0.50269,0.85984 0.31616,0.52064 0.63315,1.16221 0.31876,0.62668 0.61558,1.31118 0.31172,0.68626 0.50954,1.31377 l -1.57903,-0.18634 q -0.23114,-0.60123 -0.5201,-1.22439 -0.27406,-0.6214 -0.57005,-1.18498 -0.29424,-0.57847 -0.59726,-1.08245 -0.28812,-0.50223 -0.53072,-0.87826 -0.19542,-0.008 -0.40398,-0.0326 -0.19365,-0.0229 -0.4022,-0.0475 l -1.29601,-0.15295 -0.4764,4.03699 -1.44498,-0.17052 1.20069,-10.1744 q 0.62834,-0.0769 1.37844,-0.0337 0.76676,0.0301 1.39242,0.1039 2.17491,0.25666 3.21036,1.20958 1.05036,0.95468 0.85874,2.57841 -0.1213,1.02787 -0.75861,1.69276 -0.62242,0.66665 -1.72227,0.89935 z m -1.61848,-5.09983 q -0.92359,-0.10899 -1.42045,-0.12231 l -0.45883,3.88802 1.02788,0.1213 q 0.74482,0.0879 1.34948,0.0837 0.60466,-0.004 1.03147,-0.16526 0.44172,-0.15932 0.70913,-0.50537 0.26915,-0.36094 0.34298,-0.9866 0.0685,-0.58097 -0.10917,-0.99465 -0.17775,-0.41368 -0.53869,-0.68284 -0.34606,-0.2674 -0.85689,-0.41831 -0.49593,-0.14915 -1.07691,-0.21771 z m -16.79121,7.436 1.08191,-10.33855 6.31054,0.66039 -0.12958,1.23824 -4.86345,-0.50895 -0.3216,3.07321 4.32638,0.45275 -0.12646,1.2084 -4.32638,-0.45274 -0.37468,3.58044 5.23641,0.54798 -0.12958,1.23824 -6.68351,-0.69941 z m -9.7157,-11.48003 q 2.1809,0.19953 3.2695,1.14263 1.10491,0.92953 0.95457,2.57267 -0.082,0.89626 -0.46939,1.50851 -0.37109,0.59868 -1.02043,0.94596 -0.63304,0.33371 -1.51581,0.4337 -0.88279,0.1 -1.97323,2.2e-4 l -1.1502,-0.10523 -0.35123,3.83896 -1.44894,-0.13256 0.93341,-10.20239 q 0.62611,-0.0933 1.37709,-0.0698 0.76728,0.01 1.39466,0.0673 z m 0.003,1.28062 q -0.92613,-0.0847 -1.42317,-0.085 l -0.37172,4.06303 1.09044,0.0998 q 0.74688,0.0683 1.35258,0.0334 0.60708,-0.0499 1.03089,-0.23706 0.44011,-0.20074 0.70109,-0.58355 0.26096,-0.38282 0.31835,-1.0102 0.0547,-0.5975 -0.1488,-1.00775 -0.18853,-0.40888 -0.57135,-0.66984 -0.3665,-0.27453 -0.88113,-0.41199 -0.51461,-0.13746 -1.09718,-0.19076 z m -19.70639,2.41476 q 0.10222,-1.33107 0.56926,-2.3182 0.48194,-0.98598 1.20666,-1.60729 0.74082,-0.63512 1.66461,-0.91017 0.93874,-0.27389 1.95574,-0.19576 1.00204,0.077 1.85802,0.48876 0.87092,0.41293 1.49109,1.15261 0.62131,0.72472 0.93203,1.7716 0.32568,1.04802 0.22342,2.3791 -0.10232,1.33108 -0.58421,2.31706 -0.46698,0.98713 -1.19286,1.62339 -0.72472,0.62132 -1.6485,0.89636 -0.90883,0.27619 -1.91087,0.19921 -1.01701,-0.0781 -1.90289,-0.49221 -0.87093,-0.41293 -1.5072,-1.1388 -0.62016,-0.73968 -0.94584,-1.7877 -0.31072,-1.04688 -0.20846,-2.37796 z m 1.5255,0.1172 q -0.0724,0.94223 0.10717,1.73832 0.18069,0.78113 0.57305,1.35287 0.40731,0.57288 1.01248,0.92026 0.62127,0.33357 1.41393,0.39447 0.79267,0.0609 1.44266,-0.17501 0.65112,-0.25086 1.1262,-0.75595 0.49005,-0.50394 0.78795,-1.24831 0.29903,-0.75932 0.37143,-1.70155 0.0724,-0.94222 -0.10831,-1.72336 -0.17955,-0.79609 -0.58686,-1.36897 -0.39236,-0.57174 -0.99868,-0.90416 -0.60516,-0.34738 -1.39783,-0.40828 -0.79266,-0.0609 -1.45874,0.18882 -0.64999,0.2359 -1.14003,0.73985 -0.47509,0.50509 -0.77413,1.26441 -0.29789,0.74437 -0.37029,1.68659 z m -6.64774,3.48543 -0.0794,1.25749 -6.24255,-0.39444 0.65551,-10.37431 1.4521,0.0917 -0.57605,9.11682 4.79044,0.30269 z m -19.22737,0.15731 0.53053,-10.38145 6.33673,0.32383 -0.0636,1.24337 -4.88362,-0.24957 -0.15771,3.08598 4.34434,0.22201 -0.062,1.21341 -4.34434,-0.22201 -0.18372,3.59531 5.25813,0.26871 -0.0636,1.24338 -6.71125,-0.34297 z m -5.41619,-10.65738 q -0.63174,1.62736 -1.20946,3.01659 -0.56218,1.3748 -1.10428,2.61526 -0.5421,1.24047 -1.08025,2.376 -0.5226,1.12112 -1.0746,2.22611 l -1.36403,-0.0514 q -0.46728,-1.14341 -0.91898,-2.30124 -0.43617,-1.17226 -0.89835,-2.45057 -0.4472,-1.27775 -0.91929,-2.69153 -0.47153,-1.42877 -0.96399,-3.09851 l 1.60386,0.0604 q 0.72017,2.39882 1.41714,4.61665 0.69697,2.21782 1.44907,4.16753 0.89617,-1.87258 1.75809,-4.03165 0.86248,-2.17406 1.74618,-4.51244 l 1.55889,0.0588 z m -21.70531,9.71531 0.25233,-10.39194 6.34313,0.15402 -0.0302,1.24463 -4.88856,-0.1187 -0.075,3.08909 4.34871,0.1056 -0.0294,1.21464 -4.34872,-0.1056 -0.0874,3.59894 5.26344,0.12781 -0.0302,1.24463 -6.71802,-0.16312 z m -6.47286,-5.3284 q -0.0144,1.34992 -0.44461,2.35047 -0.43033,0.98556 -1.20218,1.63752 -0.77171,0.63697 -1.8401,0.95582 -1.06824,0.30384 -2.34316,0.29051 -0.62997,-0.007 -1.39431,-0.0746 -0.74948,-0.0528 -1.36288,-0.20926 l 0.10537,-10.07945 q 0.61654,-0.14356 1.36696,-0.18072 0.76559,-0.052 1.39556,-0.0454 1.27492,0.0133 2.33642,0.35445 1.06164,0.32612 1.8197,0.99408 0.75822,0.65297 1.16769,1.66231 0.40962,0.99433 0.39551,2.34426 z m -5.69673,3.96064 q 2.06989,0.0216 3.10081,-1.01763 1.03108,-1.05427 1.051,-2.95917 0.0199,-1.9049 -0.98905,-2.9655 -1.0088,-1.07561 -3.07869,-1.09726 -0.61497,-0.006 -0.96011,0.005 -0.33014,0.0116 -0.46528,0.0251 l -0.0832,7.94957 q 0.13483,0.0164 0.46466,0.0349 0.34483,0.0186 0.95979,0.025 z m -17.31098,-4.04231 q 0.0164,1.3499 -0.39133,2.35993 -0.40793,0.99504 -1.16485,1.66429 -0.7571,0.65426 -1.81801,0.99718 -1.06109,0.32793 -2.33599,0.34344 -0.62996,0.008 -1.39563,-0.043 -0.75049,-0.0359 -1.36727,-0.17839 l -0.12259,-10.07925 q 0.61314,-0.15747 1.36253,-0.21159 0.76421,-0.0693 1.39417,-0.077 1.27491,-0.0155 2.34384,0.30152 1.06875,0.30202 1.84172,0.95267 0.77279,0.63565 1.20497,1.63547 0.43201,0.98482 0.44844,2.33472 z m -5.6057,4.08847 q 2.06985,-0.0252 3.077,-1.0875 1.00697,-1.07732 0.98381,-2.98218 -0.0232,-1.90486 -1.05586,-2.94238 -1.03287,-1.05252 -3.10272,-1.02734 -0.61496,0.007 -0.95975,0.0267 -0.32979,0.019 -0.4646,0.0357 l 0.0967,7.94941 q 0.13517,0.0134 0.46533,0.0243 0.34516,0.0108 0.96011,0.003 z m -11.03644,1.38887 q -0.34495,-0.54583 -0.79851,-1.22377 -0.43859,-0.67834 -0.95336,-1.39963 -0.51517,-0.73629 -1.07574,-1.48635 -0.54558,-0.75046 -1.08952,-1.44095 -0.54436,-0.70548 -1.05628,-1.32181 -0.51192,-0.61633 -0.94479,-1.08476 l 0.2203,8.11201 -1.42448,0.0387 -0.28219,-10.39116 1.15457,-0.0314 q 0.7251,0.73058 1.54709,1.71363 0.83658,0.96765 1.64521,2.01108 0.8232,1.02803 1.54064,2.02892 0.73243,1.00049 1.23384,1.78216 l -0.20891,-7.69216 1.42448,-0.0387 0.2822,10.39116 -1.21455,0.033 z m -20.03775,0.6841 -0.42689,-10.38623 6.33965,-0.26056 0.0511,1.24395 -4.88588,0.20081 0.1269,3.08739 4.34633,-0.17863 0.0499,1.21397 -4.34633,0.17864 0.14783,3.59696 5.26057,-0.21621 0.0511,1.24395 -6.71433,0.27596 z m -10.00717,-4.6593 3.70002,-0.19191 0.0676,1.30325 -3.70003,0.19191 -0.0676,-1.30325 z m -4.63247,-5.0072 0.0783,1.25756 -3.26368,0.20313 0.56745,9.11736 -1.45218,0.0904 -0.56746,-9.11736 -3.26369,0.20313 -0.0783,-1.25757 7.97955,-0.49664 z m -14.4394,11.36661 q -0.37102,-0.52846 -0.85693,-1.1836 -0.47097,-0.65627 -1.02012,-1.35174 -0.55029,-0.71043 -1.14658,-1.43242 -0.58133,-0.72312 -1.15814,-1.38641 -0.57792,-0.67824 -1.11914,-1.26902 -0.54121,-0.59077 -0.9963,-1.03764 l 0.61353,8.09177 -1.42092,0.10774 -0.78591,-10.36525 1.1517,-0.0873 q 0.75968,0.69455 1.62838,1.63657 0.88253,0.92593 1.74082,1.92891 0.87211,0.98689 1.63725,1.9518 0.7801,0.96378 1.31883,1.72022 l -0.58177,-7.67298 1.42092,-0.10773 0.7859,10.36525 -1.21152,0.0919 z m -23.96523,-3.20397 q -0.12149,-1.32946 0.17407,-2.38072 0.31049,-1.05263 0.92125,-1.78625 0.62434,-0.74994 1.48921,-1.17541 0.87981,-0.42684 1.89558,-0.51967 1.00082,-0.0915 1.91355,0.17157 0.92766,0.26166 1.66266,0.88737 0.73362,0.61076 1.21483,1.59104 0.49615,0.97891 0.61764,2.30837 0.1215,1.32946 -0.18899,2.38208 -0.29556,1.05126 -0.90496,1.79983 -0.61077,0.73363 -1.47564,1.1591 -0.84993,0.42411 -1.85075,0.51558 -1.01577,0.0928 -1.95838,-0.16747 -0.92766,-0.26167 -1.67622,-0.87107 -0.735,-0.62571 -1.23114,-1.60462 -0.48121,-0.98027 -0.60271,-2.30973 z m 1.52365,-0.13924 q 0.086,0.94108 0.396,1.696 0.30863,0.73998 0.79096,1.23815 0.49728,0.49681 1.15197,0.73823 0.66826,0.22512 1.45996,0.15277 0.7917,-0.0724 1.39314,-0.41351 0.60009,-0.35609 0.98414,-0.93343 0.39899,-0.57872 0.56837,-1.36238 0.16802,-0.79861 0.082,-1.73969 -0.086,-0.94107 -0.39463,-1.68106 -0.30998,-0.75492 -0.80726,-1.25173 -0.48235,-0.49817 -1.13567,-0.72465 -0.65469,-0.24142 -1.44638,-0.16907 -0.79171,0.0724 -1.40673,0.42981 -0.60145,0.34115 -1.00043,0.91986 -0.38405,0.57735 -0.55208,1.37595 -0.16938,0.78367 -0.0834,1.72475 z m -9.59044,1.81878 q 0.27034,0.27299 0.68058,0.72722 0.42359,0.43772 0.87475,0.99319 0.44959,0.54056 0.89059,1.14236 0.45591,0.60022 0.78775,1.16836 l -1.58112,0.16787 q -0.35849,-0.53514 -0.77824,-1.07886 -0.40484,-0.54531 -0.81826,-1.02937 -0.415,-0.49898 -0.82208,-0.92337 -0.39216,-0.42598 -0.71199,-0.73896 -0.19232,0.0355 -0.40115,0.0577 -0.19392,0.0206 -0.40274,0.0428 l -1.29771,0.13778 0.42917,4.04228 -1.44687,0.15361 -1.08163,-10.18774 q 0.59574,-0.21409 1.33679,-0.33802 0.75439,-0.14043 1.38086,-0.20695 2.17777,-0.23121 3.3985,0.46883 1.23565,0.69844 1.40826,2.32431 0.10927,1.02921 -0.36503,1.8187 -0.45938,0.7879 -1.48043,1.25833 z m -2.70735,-4.61496 q -0.92481,0.0982 -1.41229,0.1952 l 0.41333,3.89312 1.02921,-0.10927 q 0.74582,-0.0792 1.33454,-0.21711 0.58874,-0.13793 0.9693,-0.38951 0.39548,-0.25317 0.57964,-0.64983 0.18256,-0.41158 0.11604,-1.03805 -0.0618,-0.58173 -0.32667,-0.9458 -0.26492,-0.36407 -0.67649,-0.54663 -0.39667,-0.18416 -0.92823,-0.21823 -0.51665,-0.0357 -1.09838,0.0261 z m -14.23401,10.90778 -1.23039,-10.32192 6.22592,-0.74215 0.14736,1.23625 -4.78115,0.56992 0.37108,3.11297 4.24494,-0.50601 0.14559,1.22135 -4.24494,0.50601 0.56636,4.75136 -1.44477,0.17222 z" />
    <flowRoot
       xml:space="preserve"
       id="flowRoot10495"
       style="fill:black;stroke:none;stroke-opacity:1;stroke-width:1px;stroke-linejoin:miter;stroke-linecap:butt;fill-opacity:1;font-family:Ubuntu;font-style:normal;font-weight:normal;font-size:20px;line-height:125%;letter-spacing:0px;word-spacing:0px;-inkscape-font-specification:Ubuntu;font-stretch:normal;font-variant:normal;"><flowRegion
         id="flowRegion10497"><rect
           id="rect10499"
           width="263.64093"
           height="29.163818"
           x="110.82251"
           y="78.253586"
           style="-inkscape-font-specification:Ubuntu;font-family:Ubuntu;font-weight:normal;font-style:normal;font-stretch:normal;font-variant:normal;" /></flowRegion><flowPara
         id="flowPara10501" /></flowRoot>    <flowRoot
       xml:space="preserve"
       id="flowRoot10503"
       style="fill:black;stroke:none;stroke-opacity:1;stroke-width:1px;stroke-linejoin:miter;stroke-linecap:butt;fill-opacity:1;font-family:sans-serif;font-style:normal;font-weight:normal;font-size:20px;line-height:125%;letter-spacing:0px;word-spacing:0px"><flowRegion
         id="flowRegion10505"><rect
           id="rect10507"
           width="300.97061"
           height="37.912964"
           x="77.57576"
           y="74.753929" /></flowRegion><flowPara
         id="flowPara10509" /></flowRoot>    <g
       transform="translate(4,937.36222)"
       style="font-style:normal;font-variant:normal;font-weight:normal;font-stretch:normal;font-size:15px;line-height:125%;font-family:Ubuntu;-inkscape-font-specification:Ubuntu;letter-spacing:5px;word-spacing:0px;fill:#000000;fill-opacity:1;stroke:none;stroke-width:1px;stroke-linecap:butt;stroke-linejoin:miter;stroke-opacity:1"
       id="flowRoot10537">
      <path
         id="path10578"
         style="fill:#333333"
         d="m 358.11523,88.528799 q 0.24,0.3 0.6,0.795 0.375,0.48 0.765,1.08 0.39,0.585 0.765,1.23 0.39,0.645 0.66,1.245 l -1.59,0 q -0.3,-0.57 -0.66,-1.155 -0.345,-0.585 -0.705,-1.11 -0.36,-0.54 -0.72,-1.005 -0.345,-0.465 -0.63,-0.81 -0.195,0.015 -0.405,0.015 -0.195,0 -0.405,0 l -1.305,0 0,4.065 -1.455,0 0,-10.245 q 0.615,-0.15 1.365,-0.195 0.765,-0.06 1.395,-0.06 2.19,0 3.33,0.825 1.155,0.825 1.155,2.46 0,1.035 -0.555,1.77 -0.54,0.735 -1.605,1.095 z m -2.205,-4.875 q -0.93,0 -1.425,0.045 l 0,3.915 1.035,0 q 0.75,0 1.35,-0.075 0.6,-0.075 1.005,-0.285 0.42,-0.21 0.645,-0.585 0.225,-0.39 0.225,-1.02 0,-0.585 -0.225,-0.975 -0.225,-0.39 -0.615,-0.615 -0.375,-0.225 -0.9,-0.315 -0.51,-0.09 -1.095,-0.09 z m -16.43468,9.225 0,-10.395 6.345,0 0,1.245 -4.89,0 0,3.09 4.35,0 0,1.215 -4.35,0 0,3.6 5.265,0 0,1.245 -6.72,0 z m -11.35133,-10.5 q 2.19,0 3.36,0.84 1.185,0.825 1.185,2.475 0,0.9 -0.33,1.545 -0.315,0.63 -0.93,1.035 -0.6,0.39 -1.47,0.57 -0.87,0.18 -1.965,0.18 l -1.155,0 0,3.855 -1.455,0 0,-10.245 q 0.615,-0.15 1.365,-0.195 0.765,-0.06 1.395,-0.06 z m 0.12,1.275 q -0.93,0 -1.425,0.045 l 0,4.08 1.095,0 q 0.75,0 1.35,-0.09 0.6,-0.105 1.005,-0.33 0.42,-0.24 0.645,-0.645 0.225,-0.405 0.225,-1.035 0,-0.6 -0.24,-0.99 -0.225,-0.39 -0.63,-0.615 -0.39,-0.24 -0.915,-0.33 -0.525,-0.09 -1.11,-0.09 z m -19.96016,4.02 q 0,-1.335 0.39,-2.355 0.405,-1.02 1.08,-1.695 0.69,-0.69 1.59,-1.035 0.915,-0.345 1.935,-0.345 1.005,0 1.89,0.345 0.9,0.345 1.575,1.035 0.675,0.675 1.065,1.695 0.405,1.02 0.405,2.355 0,1.335 -0.405,2.355 -0.39,1.02 -1.065,1.71 -0.675,0.675 -1.575,1.02 -0.885,0.345 -1.89,0.345 -1.02,0 -1.935,-0.345 -0.9,-0.345 -1.59,-1.02 -0.675,-0.69 -1.08,-1.71 -0.39,-1.02 -0.39,-2.355 z m 1.53,0 q 0,0.945 0.24,1.725 0.24,0.765 0.675,1.305 0.45,0.54 1.08,0.84 0.645,0.285 1.44,0.285 0.795,0 1.425,-0.285 0.63,-0.3 1.065,-0.84 0.45,-0.54 0.69,-1.305 0.24,-0.78 0.24,-1.725 0,-0.945 -0.24,-1.71 -0.24,-0.78 -0.69,-1.32 -0.435,-0.54 -1.065,-0.825 -0.63,-0.3 -1.425,-0.3 -0.795,0 -1.44,0.3 -0.63,0.285 -1.08,0.825 -0.435,0.54 -0.675,1.32 -0.24,0.765 -0.24,1.71 z m -6.97414,3.945 0,1.26 -6.255,0 0,-10.395 1.455,0 0,9.135 4.8,0 z m -19.80969,1.26 0,-10.395 6.345,0 0,1.245 -4.89,0 0,3.09 4.35,0 0,1.215 -4.35,0 0,3.6 5.265,0 0,1.245 -6.72,0 z m -6.44375,-10.395 q -0.57,1.65 -1.095,3.06 -0.51,1.395 -1.005,2.655 -0.495,1.26 -0.99,2.415 -0.48,1.14 -0.99,2.265 l -1.365,0 q -0.51,-1.125 -1.005,-2.265 -0.48,-1.155 -0.99,-2.415 -0.495,-1.26 -1.02,-2.655 -0.525,-1.41 -1.08,-3.06 l 1.605,0 q 0.81,2.37 1.59,4.56 0.78,2.19 1.605,4.11 0.825,-1.905 1.605,-4.095 0.78,-2.205 1.575,-4.575 l 1.56,0 z m -21.95468,10.395 0,-10.395 6.345,0 0,1.245 -4.89,0 0,3.09 4.35,0 0,1.215 -4.35,0 0,3.6 5.265,0 0,1.245 -6.72,0 z m -7.15836,-5.205 q 0,1.35 -0.42,2.355 -0.42,0.99 -1.185,1.65 -0.765,0.645 -1.83,0.975 -1.065,0.315 -2.34,0.315 -0.63,0 -1.395,-0.06 -0.75,-0.045 -1.365,-0.195 l 0,-10.08 q 0.615,-0.15 1.365,-0.195 0.765,-0.06 1.395,-0.06 1.275,0 2.34,0.33 1.065,0.315 1.83,0.975 0.765,0.645 1.185,1.65 0.42,0.99 0.42,2.34 z m -5.655,4.02 q 2.07,0 3.09,-1.05 1.02,-1.065 1.02,-2.97 0,-1.905 -1.02,-2.955 -1.02,-1.065 -3.09,-1.065 -0.615,0 -0.96,0.015 -0.33,0.015 -0.465,0.03 l 0,7.95 q 0.135,0.015 0.465,0.03 0.345,0.015 0.96,0.015 z m -18.49539,-4.02 q 0,1.35 -0.42,2.355 -0.42,0.99 -1.185,1.65 -0.765,0.645 -1.83,0.975 -1.065,0.315 -2.34,0.315 -0.63,0 -1.395,-0.06 -0.75,-0.045 -1.365,-0.195 l 0,-10.08 q 0.615,-0.15 1.365,-0.195 0.765,-0.06 1.395,-0.06 1.275,0 2.34,0.33 1.065,0.315 1.83,0.975 0.765,0.645 1.185,1.65 0.42,0.99 0.42,2.34 z m -5.655,4.02 q 2.07,0 3.09,-1.05 1.02,-1.065 1.02,-2.97 0,-1.905 -1.02,-2.955 -1.02,-1.065 -3.09,-1.065 -0.615,0 -0.96,0.015 -0.33,0.015 -0.465,0.03 l 0,7.95 q 0.135,0.015 0.465,0.03 0.345,0.015 0.96,0.015 z m -11.68274,1.185 q -0.33,-0.555 -0.765,-1.245 -0.42,-0.69 -0.915,-1.425 -0.495,-0.75 -1.035,-1.515 -0.525,-0.765 -1.05,-1.47 -0.525,-0.72 -1.02,-1.35 -0.495,-0.63 -0.915,-1.11 l 0,8.115 -1.425,0 0,-10.395 1.155,0 q 0.705,0.75 1.5,1.755 0.81,0.99 1.59,2.055 0.795,1.05 1.485,2.07 0.705,1.02 1.185,1.815 l 0,-7.695 1.425,0 0,10.395 -1.215,0 z m -20.67969,0 0,-10.395 6.345,0 0,1.245 -4.89,0 0,3.09 4.35,0 0,1.215 -4.35,0 0,3.6 5.265,0 0,1.245 -6.72,0 z m -10.38242,-5.145 3.705,0 0,1.305 -3.705,0 0,-1.305 z m -5.13547,-5.25 q -0.465,0.51 -1.05,1.14 -0.585,0.615 -1.23,1.275 -0.63,0.645 -1.26,1.275 -0.63,0.63 -1.185,1.17 0.645,0.45 1.365,1.11 0.72,0.66 1.41,1.41 0.69,0.75 1.29,1.53 0.615,0.78 1.02,1.485 l -1.71,0 q -0.45,-0.705 -1.035,-1.41 -0.585,-0.72 -1.245,-1.365 -0.645,-0.66 -1.32,-1.215 -0.66,-0.555 -1.29,-0.945 l 0,4.935 -1.455,0 0,-10.395 1.455,0 0,4.59 q 0.525,-0.495 1.155,-1.11 0.63,-0.63 1.245,-1.26 0.615,-0.63 1.155,-1.2 0.555,-0.585 0.93,-1.02 l 1.755,0 z m -17.51211,10.62 q -1.095,0 -1.995,-0.36 -0.9,-0.36 -1.545,-1.05 -0.645,-0.69 -1.005,-1.695 -0.345,-1.02 -0.345,-2.325 0,-1.305 0.39,-2.31 0.405,-1.02 1.08,-1.71 0.675,-0.69 1.575,-1.05 0.9,-0.36 1.92,-0.36 0.645,0 1.155,0.09 0.525,0.09 0.9,0.21 0.39,0.12 0.63,0.24 0.24,0.12 0.33,0.18 l -0.42,1.2 q -0.135,-0.09 -0.39,-0.195 -0.255,-0.105 -0.585,-0.21 -0.315,-0.105 -0.705,-0.165 -0.375,-0.075 -0.76499,-0.075 -0.82501,0 -1.48501,0.285 -0.66,0.285 -1.125,0.825 -0.465,0.54 -0.72,1.32 -0.24,0.765 -0.24,1.725 0,0.93 0.21,1.695 0.225,0.765 0.66,1.32 0.435,0.54 1.08,0.84 0.66,0.3 1.53,0.3 1.005,0 1.665,-0.21 0.66,-0.21 0.99,-0.375 l 0.375,1.2 q -0.105,0.075 -0.375,0.195 -0.27,0.105 -0.675,0.21 -0.405,0.105 -0.945,0.18 -0.54,0.075 -1.17,0.075 z m -12.16367,-0.225 q -0.255,-0.675 -0.48,-1.32 -0.225,-0.66 -0.465,-1.335 l -4.71,0 -0.945,2.655 -1.515,0 q 0.6,-1.65 1.125,-3.045 0.525,-1.41 1.02,-2.67 0.51,-1.26 1.005,-2.4 0.495,-1.155 1.035,-2.28 l 1.335,0 q 0.54,1.125 1.035,2.28 0.495,1.14 0.99,2.4 0.51,1.26 1.035,2.67 0.525,1.395 1.125,3.045 l -1.59,0 z m -1.365,-3.855 q -0.48,-1.305 -0.96,-2.52 -0.465,-1.23 -0.975,-2.355 -0.525,1.125 -1.005,2.355 -0.465,1.215 -0.93,2.52 l 3.87,0 z m -17.41367,3.945 q -0.315,0 -0.69,-0.015 -0.36,-0.015 -0.735,-0.045 -0.36,-0.03 -0.72,-0.075 -0.36,-0.045 -0.66,-0.12 l 0,-10.08 q 0.3,-0.075 0.66,-0.12 0.36,-0.045 0.72,-0.075 0.375,-0.03 0.735,-0.045 0.36,-0.015 0.675,-0.015 0.9,0 1.68,0.135 0.795,0.135 1.365,0.465 0.585,0.315 0.915,0.84 0.33,0.525 0.33,1.29 0,0.855 -0.405,1.41 -0.405,0.54 -1.08,0.81 0.915,0.27 1.455,0.855 0.54,0.585 0.54,1.65 0,1.56 -1.155,2.355 -1.14,0.78 -3.63,0.78 z m -1.365,-4.935 0,3.66 q 0.165,0.015 0.39,0.03 0.195,0.015 0.45,0.03 0.27,0 0.615,0 0.645,0 1.215,-0.075 0.585,-0.09 1.02,-0.3 0.435,-0.21 0.69,-0.585 0.27,-0.375 0.27,-0.945 0,-0.51 -0.195,-0.855 -0.195,-0.36 -0.57,-0.57 -0.36,-0.21 -0.87,-0.3 -0.51,-0.09 -1.14,-0.09 l -1.875,0 z m 0,-1.17 1.53,0 q 0.54,0 1.02,-0.075 0.48,-0.075 0.825,-0.27 0.36,-0.195 0.555,-0.51 0.21,-0.315 0.21,-0.795 0,-0.45 -0.21,-0.75 -0.21,-0.315 -0.585,-0.495 -0.36,-0.195 -0.855,-0.285 -0.495,-0.09 -1.05,-0.09 -0.555,0 -0.87,0.015 -0.315,0.015 -0.57,0.045 l 0,3.21 z" />
    </g>
  </g>
</svg>
