<svg xmlns="http://www.w3.org/2000/svg" version="1.1" xmlns:xlink="http://www.w3.org/1999/xlink" xmlns:svgjs="http://svgjs.dev/svgjs" width="1000" height="232" viewBox="0 0 1000 232"><g transform="matrix(1,0,0,1,0.10666666666668334,-0.12666666666670778)"><svg viewBox="0 0 375 87" data-background-color="#ffffff" preserveAspectRatio="xMidYMid meet" height="232" width="1000" xmlns="http://www.w3.org/2000/svg" xmlns:xlink="http://www.w3.org/1999/xlink"><g id="tight-bounds" transform="matrix(1,0,0,1,-0.03976000000000113,0.047910000000001673)"><svg viewBox="0 0 375.07953 86.90449" height="86.90449" width="375.07953"><g><svg></svg></g><g><svg viewBox="0 0 375.07953 86.90449" height="86.90449" width="375.07953"><g transform="matrix(1,0,0,1,-10.22024,-82.36640999999999)"><path d="M10.22 164.834v-82.468h375.08v82.468h-29.318l0-2.746h26.572v-76.976h-369.588v76.976h219.538v2.746z" fill="#000000" fill-rule="nonzero" stroke="none" stroke-width="1" stroke-linecap="butt" stroke-linejoin="miter" stroke-miterlimit="10" stroke-dasharray="" stroke-dashoffset="0" font-family="none" font-weight="none" font-size="none" text-anchor="none" style="mix-blend-mode: normal" data-fill-palette-color="tertiary"></path><g><path d="M243.409 166.252v0c0.703 0 1.249-0.128 1.64-0.385 0.39-0.255 0.586-0.669 0.585-1.242v0c0-0.33-0.062-0.606-0.187-0.827-0.127-0.22-0.294-0.407-0.503-0.56-0.208-0.151-0.447-0.281-0.715-0.39-0.269-0.108-0.551-0.222-0.846-0.344v0c-0.373-0.147-0.707-0.299-1.002-0.455-0.295-0.156-0.547-0.332-0.755-0.529-0.208-0.194-0.366-0.417-0.473-0.668-0.109-0.252-0.164-0.547-0.164-0.885v0c0-0.772 0.256-1.358 0.767-1.757 0.512-0.399 1.223-0.599 2.134-0.599v0c0.243 0 0.481 0.017 0.716 0.053 0.234 0.035 0.453 0.08 0.656 0.135 0.205 0.057 0.392 0.121 0.562 0.19 0.168 0.069 0.309 0.143 0.422 0.221v0l-0.313 0.742c-0.252-0.173-0.557-0.312-0.916-0.417-0.361-0.104-0.75-0.156-1.166-0.156v0c-0.286 0-0.548 0.028-0.786 0.084-0.239 0.057-0.446 0.148-0.619 0.273-0.173 0.127-0.31 0.285-0.409 0.476-0.101 0.191-0.151 0.421-0.151 0.69v0c0 0.278 0.052 0.512 0.157 0.702 0.104 0.191 0.25 0.356 0.437 0.495 0.186 0.139 0.404 0.265 0.656 0.377 0.252 0.113 0.525 0.23 0.819 0.352v0c0.356 0.147 0.692 0.295 1.01 0.442 0.316 0.147 0.591 0.321 0.825 0.521 0.234 0.2 0.421 0.442 0.56 0.728 0.139 0.286 0.208 0.638 0.208 1.054v0c0 0.815-0.284 1.427-0.851 1.835-0.569 0.408-1.339 0.612-2.311 0.612v0c-0.347 0-0.664-0.022-0.95-0.065-0.286-0.043-0.542-0.098-0.768-0.164-0.226-0.064-0.416-0.131-0.572-0.201-0.156-0.069-0.278-0.13-0.365-0.182v0l0.287-0.768c0.087 0.052 0.204 0.113 0.351 0.182 0.147 0.069 0.321 0.136 0.52 0.201 0.2 0.066 0.425 0.121 0.677 0.164 0.252 0.043 0.529 0.065 0.833 0.065zM253.884 163.467v0c0 0.529-0.075 1.011-0.226 1.445-0.153 0.434-0.365 0.802-0.638 1.106-0.274 0.304-0.598 0.54-0.971 0.708-0.373 0.17-0.785 0.255-1.236 0.255v0c-0.451 0-0.863-0.085-1.236-0.255-0.373-0.168-0.696-0.404-0.968-0.708-0.274-0.304-0.487-0.672-0.638-1.106-0.153-0.434-0.229-0.915-0.229-1.445v0c0-0.529 0.076-1.011 0.229-1.444 0.151-0.434 0.363-0.805 0.638-1.114 0.272-0.307 0.595-0.546 0.968-0.716 0.373-0.168 0.785-0.252 1.236-0.252v0c0.451 0 0.863 0.084 1.236 0.252 0.373 0.17 0.697 0.409 0.971 0.716 0.272 0.309 0.485 0.68 0.638 1.114 0.151 0.434 0.226 0.915 0.226 1.444zM252.986 163.467v0c0-0.841-0.195-1.512-0.585-2.012-0.39-0.498-0.92-0.747-1.588-0.746v0c-0.668 0-1.197 0.249-1.587 0.746-0.39 0.5-0.586 1.17-0.586 2.012v0c0 0.841 0.195 1.509 0.586 2.004 0.39 0.494 0.92 0.742 1.587 0.742v0c0.668 0 1.197-0.247 1.588-0.742 0.39-0.494 0.586-1.162 0.585-2.004zM258.191 156.727v0c0.364 0 0.662 0.028 0.893 0.083 0.229 0.057 0.378 0.108 0.448 0.151v0l-0.169 0.729c-0.095-0.043-0.236-0.089-0.422-0.138-0.187-0.047-0.424-0.07-0.711-0.071v0c-0.599 0-1.025 0.152-1.28 0.456-0.257 0.304-0.385 0.789-0.385 1.457v0 0.703h2.706v0.716h-2.706v6.012h-0.846v-7.457c0-0.876 0.202-1.536 0.606-1.978 0.403-0.442 1.025-0.664 1.866-0.663zM261.406 157.963v2.134h2.68v0.716h-2.68v3.578c0 0.382 0.032 0.691 0.096 0.929 0.066 0.239 0.16 0.424 0.281 0.555 0.121 0.13 0.269 0.217 0.442 0.26 0.173 0.043 0.364 0.065 0.573 0.065v0c0.356 0 0.642-0.042 0.859-0.125 0.217-0.082 0.386-0.157 0.507-0.226v0l0.208 0.702c-0.121 0.078-0.334 0.167-0.637 0.266-0.304 0.101-0.633 0.151-0.989 0.151v0c-0.416 0-0.766-0.055-1.049-0.164-0.281-0.108-0.506-0.272-0.674-0.495-0.17-0.22-0.29-0.495-0.359-0.825-0.069-0.33-0.104-0.72-0.104-1.171v0-6.194zM269.252 160.097h0.729c0.078 0.434 0.18 0.895 0.304 1.384 0.127 0.491 0.265 0.99 0.417 1.497 0.153 0.508 0.313 1.01 0.481 1.504 0.17 0.494 0.342 0.959 0.516 1.393v0c0.147-0.33 0.304-0.731 0.468-1.205 0.165-0.472 0.33-0.971 0.495-1.497 0.165-0.524 0.319-1.053 0.463-1.587 0.142-0.533 0.261-1.029 0.356-1.489v0h0.833c-0.312 1.319-0.652 2.524-1.02 3.617-0.37 1.093-0.776 2.13-1.218 3.11v0h-0.794c-0.13-0.304-0.267-0.645-0.411-1.022-0.142-0.377-0.29-0.78-0.442-1.21-0.151-0.429-0.298-0.88-0.443-1.354-0.142-0.472-0.278-0.955-0.408-1.449v0c-0.13 0.494-0.267 0.978-0.412 1.449-0.142 0.474-0.29 0.925-0.442 1.354-0.151 0.43-0.298 0.834-0.443 1.21-0.142 0.378-0.278 0.719-0.408 1.022v0h-0.807c-0.442-0.98-0.848-2.017-1.218-3.11-0.368-1.093-0.708-2.299-1.02-3.617v0h0.898c0.095 0.46 0.214 0.956 0.356 1.489 0.144 0.534 0.298 1.064 0.464 1.587 0.165 0.526 0.331 1.023 0.499 1.491 0.17 0.468 0.329 0.868 0.477 1.198v0c0.165-0.434 0.331-0.898 0.499-1.393 0.17-0.494 0.329-0.993 0.476-1.496 0.147-0.503 0.286-1 0.417-1.492 0.13-0.489 0.243-0.951 0.338-1.384zM277.854 166.213v0c0.33 0 0.619-0.011 0.866-0.034 0.246-0.021 0.456-0.049 0.63-0.083v0-2.369c-0.095-0.043-0.247-0.089-0.455-0.137-0.208-0.047-0.494-0.07-0.859-0.071v0c-0.208 0-0.425 0.015-0.651 0.045-0.226 0.031-0.434 0.096-0.624 0.195-0.191 0.101-0.347 0.238-0.469 0.411-0.121 0.173-0.182 0.403-0.182 0.69v0c0 0.252 0.041 0.464 0.122 0.637 0.083 0.173 0.2 0.312 0.352 0.417 0.153 0.104 0.336 0.18 0.549 0.226 0.212 0.049 0.452 0.073 0.721 0.073zM277.776 159.941v0c0.442 0 0.817 0.062 1.124 0.187 0.309 0.127 0.559 0.3 0.749 0.521 0.191 0.222 0.33 0.485 0.417 0.788 0.087 0.304 0.13 0.633 0.13 0.989v0 4.242c-0.087 0.026-0.213 0.054-0.377 0.084-0.165 0.031-0.356 0.064-0.573 0.099-0.217 0.035-0.457 0.063-0.721 0.085-0.265 0.021-0.537 0.031-0.815 0.032v0c-0.356 0-0.684-0.039-0.983-0.117-0.298-0.078-0.559-0.202-0.781-0.373-0.22-0.168-0.394-0.385-0.521-0.65-0.125-0.264-0.187-0.586-0.187-0.968v0c0-0.364 0.069-0.677 0.208-0.937 0.139-0.26 0.334-0.475 0.586-0.646 0.252-0.168 0.551-0.291 0.898-0.369 0.347-0.078 0.724-0.117 1.132-0.117v0c0.121 0 0.249 0.006 0.382 0.018 0.135 0.014 0.265 0.031 0.391 0.052 0.127 0.023 0.235 0.044 0.325 0.065 0.092 0.023 0.155 0.043 0.19 0.06v0-0.417c0-0.234-0.017-0.462-0.052-0.684-0.035-0.22-0.111-0.42-0.229-0.599-0.116-0.177-0.281-0.32-0.494-0.429-0.212-0.108-0.491-0.161-0.838-0.162v0c-0.494 0-0.863 0.035-1.107 0.105-0.243 0.069-0.421 0.126-0.533 0.169v0l-0.117-0.742c0.147-0.069 0.375-0.134 0.682-0.195 0.309-0.061 0.68-0.091 1.114-0.091zM284.646 159.967v0c0.278 0 0.54 0.022 0.789 0.065 0.246 0.043 0.417 0.087 0.513 0.13v0l-0.17 0.729c-0.069-0.035-0.21-0.072-0.421-0.112-0.213-0.038-0.494-0.057-0.841-0.057v0c-0.364 0-0.657 0.026-0.877 0.078-0.222 0.052-0.368 0.095-0.437 0.13v0 5.894h-0.846v-6.415c0.217-0.095 0.516-0.193 0.898-0.294 0.382-0.099 0.846-0.148 1.392-0.148zM286.819 163.454v0c0-0.59 0.084-1.104 0.253-1.543 0.17-0.437 0.392-0.803 0.666-1.098 0.272-0.295 0.585-0.514 0.937-0.659 0.35-0.142 0.712-0.213 1.085-0.213v0c0.824 0 1.482 0.269 1.973 0.807 0.489 0.538 0.734 1.366 0.734 2.485v0c0 0.069-0.002 0.139-0.005 0.208-0.005 0.069-0.012 0.134-0.021 0.195v0h-4.724c0.026 0.824 0.23 1.457 0.612 1.9 0.382 0.442 0.989 0.664 1.822 0.664v0c0.46 0 0.824-0.043 1.093-0.13 0.269-0.087 0.464-0.16 0.585-0.221v0l0.156 0.728c-0.121 0.069-0.35 0.152-0.684 0.247-0.333 0.095-0.725 0.143-1.176 0.144v0c-0.59 0-1.093-0.087-1.51-0.261-0.416-0.173-0.759-0.416-1.028-0.728-0.269-0.312-0.464-0.684-0.585-1.114-0.121-0.429-0.182-0.899-0.183-1.411zM287.743 162.921h3.852c-0.017-0.703-0.182-1.249-0.494-1.64-0.312-0.39-0.755-0.586-1.328-0.585v0c-0.304 0-0.575 0.061-0.814 0.182-0.238 0.121-0.446 0.284-0.625 0.486-0.177 0.205-0.316 0.442-0.416 0.711-0.099 0.269-0.157 0.551-0.175 0.846zM302.916 166.825h-5.543v-9.018h5.205v0.767h-4.32v3.137h3.851v0.754h-3.851v3.592h4.658zM304.543 166.825v-6.494c0.252-0.069 0.59-0.147 1.015-0.234 0.425-0.087 0.946-0.13 1.561-0.13v0c0.512 0 0.94 0.074 1.283 0.221 0.342 0.147 0.614 0.357 0.818 0.63 0.205 0.274 0.35 0.602 0.437 0.984 0.087 0.382 0.13 0.802 0.13 1.262v0 3.761h-0.846v-3.488c0-0.477-0.032-0.881-0.096-1.21-0.066-0.33-0.174-0.599-0.326-0.807-0.153-0.208-0.353-0.358-0.601-0.45-0.246-0.09-0.556-0.135-0.929-0.135v0c-0.399 0-0.743 0.022-1.033 0.065-0.291 0.043-0.481 0.082-0.567 0.117v0 5.908zM316.332 166.486v-0.442c-0.052 0.043-0.13 0.093-0.234 0.148-0.104 0.057-0.232 0.116-0.385 0.177-0.151 0.061-0.324 0.11-0.521 0.148-0.194 0.04-0.413 0.06-0.655 0.06v0c-0.39 0-0.768-0.061-1.133-0.182-0.364-0.121-0.683-0.312-0.955-0.572-0.274-0.26-0.494-0.597-0.658-1.01-0.165-0.411-0.247-0.912-0.247-1.502v0c0-0.477 0.074-0.92 0.221-1.327 0.147-0.408 0.357-0.762 0.63-1.062 0.274-0.298 0.609-0.533 1.004-0.703 0.394-0.168 0.838-0.252 1.333-0.252v0c0.625 0 1.125 0.041 1.501 0.122 0.378 0.083 0.689 0.164 0.932 0.242v0 6.142c0 1.006-0.26 1.725-0.781 2.155-0.521 0.429-1.306 0.643-2.355 0.643v0c-0.434 0-0.827-0.032-1.179-0.096-0.35-0.066-0.651-0.142-0.903-0.229v0l0.169-0.768c0.208 0.095 0.493 0.178 0.854 0.247 0.359 0.069 0.721 0.104 1.085 0.104v0c0.798 0 1.377-0.154 1.736-0.46 0.361-0.309 0.541-0.836 0.541-1.583zM316.319 165.25v-4.333c-0.147-0.043-0.338-0.085-0.572-0.125-0.234-0.038-0.568-0.057-1.002-0.057v0c-0.364 0-0.688 0.062-0.971 0.187-0.281 0.127-0.521 0.304-0.721 0.533-0.2 0.231-0.351 0.504-0.455 0.82-0.104 0.318-0.156 0.667-0.157 1.049v0c0 0.442 0.061 0.822 0.183 1.137 0.121 0.318 0.28 0.576 0.476 0.776 0.194 0.2 0.417 0.345 0.669 0.437 0.252 0.09 0.507 0.135 0.768 0.135v0c0.382 0 0.73-0.056 1.046-0.169 0.318-0.113 0.563-0.243 0.736-0.39zM320.249 160.097v6.728h-0.846v-6.728zM320.444 158.067v0c0 0.2-0.061 0.357-0.182 0.474-0.121 0.118-0.269 0.177-0.442 0.177v0c-0.173 0-0.321-0.059-0.443-0.177-0.121-0.116-0.182-0.274-0.182-0.474v0c0-0.2 0.061-0.358 0.182-0.476 0.121-0.116 0.269-0.174 0.443-0.175v0c0.173 0 0.321 0.058 0.442 0.175 0.121 0.118 0.182 0.277 0.182 0.476zM322.487 166.825v-6.494c0.252-0.069 0.59-0.147 1.015-0.234 0.425-0.087 0.946-0.13 1.562-0.13v0c0.512 0 0.94 0.074 1.283 0.221 0.342 0.147 0.614 0.357 0.817 0.63 0.205 0.274 0.35 0.602 0.437 0.984 0.087 0.382 0.13 0.802 0.13 1.262v0 3.761h-0.845v-3.488c0-0.477-0.033-0.881-0.099-1.21-0.064-0.33-0.173-0.599-0.326-0.807-0.151-0.208-0.35-0.358-0.598-0.45-0.246-0.09-0.556-0.135-0.929-0.135v0c-0.399 0-0.743 0.022-1.034 0.065-0.291 0.043-0.481 0.082-0.567 0.117v0 5.908zM329.488 163.454v0c0-0.59 0.085-1.104 0.255-1.543 0.168-0.437 0.389-0.803 0.661-1.098 0.274-0.295 0.586-0.514 0.937-0.659 0.352-0.142 0.715-0.213 1.088-0.213v0c0.824 0 1.481 0.269 1.97 0.807 0.491 0.538 0.737 1.366 0.737 2.485v0c0 0.069-0.002 0.139-0.006 0.208-0.005 0.069-0.012 0.134-0.02 0.195v0h-4.724c0.026 0.824 0.23 1.457 0.612 1.9 0.382 0.442 0.989 0.664 1.821 0.664v0c0.46 0 0.824-0.043 1.093-0.13 0.269-0.087 0.464-0.16 0.586-0.221v0l0.156 0.728c-0.121 0.069-0.349 0.152-0.682 0.247-0.335 0.095-0.728 0.143-1.179 0.144v0c-0.59 0-1.093-0.087-1.509-0.261-0.416-0.173-0.759-0.416-1.028-0.728-0.269-0.312-0.464-0.684-0.586-1.114-0.121-0.429-0.182-0.899-0.182-1.411zM330.412 162.921h3.852c-0.017-0.703-0.182-1.249-0.495-1.64-0.312-0.39-0.755-0.586-1.327-0.585v0c-0.304 0-0.574 0.061-0.812 0.182-0.239 0.121-0.449 0.284-0.627 0.486-0.177 0.205-0.315 0.442-0.414 0.711-0.101 0.269-0.16 0.551-0.177 0.846zM336.619 163.454v0c0-0.59 0.084-1.104 0.253-1.543 0.17-0.437 0.391-0.803 0.663-1.098 0.274-0.295 0.586-0.514 0.937-0.659 0.352-0.142 0.715-0.213 1.088-0.213v0c0.824 0 1.481 0.269 1.97 0.807 0.491 0.538 0.737 1.366 0.737 2.485v0c0 0.069-0.003 0.139-0.008 0.208-0.003 0.069-0.01 0.134-0.018 0.195v0h-4.724c0.026 0.824 0.23 1.457 0.612 1.9 0.382 0.442 0.989 0.664 1.821 0.664v0c0.46 0 0.824-0.043 1.093-0.13 0.269-0.087 0.464-0.16 0.586-0.221v0l0.156 0.728c-0.121 0.069-0.35 0.152-0.684 0.247-0.333 0.095-0.725 0.143-1.177 0.144v0c-0.59 0-1.093-0.087-1.509-0.261-0.416-0.173-0.759-0.416-1.028-0.728-0.269-0.312-0.464-0.684-0.586-1.114-0.121-0.429-0.182-0.899-0.182-1.411zM337.543 162.921h3.852c-0.017-0.703-0.182-1.249-0.495-1.64-0.312-0.39-0.755-0.586-1.327-0.585v0c-0.304 0-0.575 0.061-0.815 0.182-0.238 0.121-0.446 0.284-0.624 0.486-0.177 0.205-0.316 0.442-0.417 0.711-0.099 0.269-0.157 0.551-0.174 0.846zM346.444 159.967v0c0.278 0 0.54 0.022 0.786 0.065 0.248 0.043 0.42 0.087 0.515 0.13v0l-0.169 0.729c-0.069-0.035-0.211-0.072-0.424-0.112-0.212-0.038-0.491-0.057-0.838-0.057v0c-0.364 0-0.658 0.026-0.88 0.078-0.22 0.052-0.365 0.095-0.435 0.13v0 5.894h-0.846v-6.415c0.217-0.095 0.516-0.193 0.898-0.294 0.382-0.099 0.846-0.148 1.393-0.148z" fill="#000000" fill-rule="nonzero" stroke="none" stroke-width="1" stroke-linecap="butt" stroke-linejoin="miter" stroke-miterlimit="10" stroke-dasharray="" stroke-dashoffset="0" font-family="none" font-weight="none" font-size="none" text-anchor="none" style="mix-blend-mode: normal" data-fill-palette-color="secondary"></path></g></g><g transform="matrix(1,0,0,1,29.33176499999999,28.22861501594896)"><svg viewBox="0 0 316.416 30.447259968102074" height="30.447259968102074" width="316.416"><g><svg viewBox="0 0 316.416 30.447259968102074" height="30.447259968102074" width="316.416"><g><svg viewBox="0 0 316.416 30.447259968102074" height="30.447259968102074" width="316.416"><g><svg viewBox="0 0 316.416 30.447259968102074" height="30.447259968102074" width="316.416"><g id="textblocktransform"><svg viewBox="0 0 316.416 30.447259968102074" height="30.447259968102074" width="316.416" id="textblock"><g><svg viewBox="0 0 316.416 30.447259968102074" height="30.447259968102074" width="316.416"><g transform="matrix(1,0,0,1,0,0)"><svg width="316.416" viewBox="4.3 -35.45 376.17 36.2" height="30.447259968102074" data-palette-color="#000000"><path d="M9.15 0L4.3 0 4.3-34.65 25.2-34.65 25.2-30.5 9.15-30.5 9.15-20.05 23.4-20.05 23.4-15.95 9.15-15.95 9.15 0ZM57.3 0L52 0Q51.15-2.25 50.4-4.42 49.65-6.6 48.85-8.85L48.85-8.85 33.15-8.85 30 0 24.95 0Q26.95-5.5 28.7-10.18 30.45-14.85 32.12-19.05 33.8-23.25 35.45-27.08 37.1-30.9 38.9-34.65L38.9-34.65 43.35-34.65Q45.15-30.9 46.8-27.08 48.45-23.25 50.12-19.05 51.8-14.85 53.55-10.18 55.3-5.5 57.3 0L57.3 0ZM34.55-12.85L47.45-12.85Q45.85-17.2 44.27-21.28 42.7-25.35 41-29.1L41-29.1Q39.25-25.35 37.67-21.28 36.1-17.2 34.55-12.85L34.55-12.85ZM71.34 0.3L71.34 0.3Q70.3 0.3 69.07 0.25 67.84 0.2 66.62 0.1 65.39 0 64.19-0.15 63-0.3 61.99-0.55L61.99-0.55 61.99-34.15Q63-34.4 64.19-34.55 65.39-34.7 66.62-34.8 67.84-34.9 69.05-34.95 70.25-35 71.3-35L71.3-35Q74.3-35 76.92-34.55 79.55-34.1 81.47-33.02 83.4-31.95 84.5-30.2 85.59-28.45 85.59-25.9L85.59-25.9Q85.59-23.05 84.25-21.23 82.9-19.4 80.65-18.5L80.65-18.5Q83.69-17.6 85.5-15.65 87.3-13.7 87.3-10.15L87.3-10.15Q87.3-4.95 83.47-2.33 79.65 0.3 71.34 0.3ZM73.05-16.15L66.8-16.15 66.8-3.95Q67.34-3.9 68.09-3.85L68.09-3.85Q68.75-3.8 69.62-3.78 70.5-3.75 71.64-3.75L71.64-3.75Q73.8-3.75 75.72-4.03 77.65-4.3 79.09-5 80.55-5.7 81.42-6.95 82.3-8.2 82.3-10.1L82.3-10.1Q82.3-11.8 81.65-12.98 81-14.15 79.77-14.85 78.55-15.55 76.84-15.85 75.14-16.15 73.05-16.15L73.05-16.15ZM66.8-30.75L66.8-20.05 71.89-20.05Q73.69-20.05 75.3-20.3 76.9-20.55 78.07-21.2 79.25-21.85 79.92-22.9 80.59-23.95 80.59-25.55L80.59-25.55Q80.59-27.05 79.9-28.08 79.19-29.1 77.97-29.73 76.75-30.35 75.09-30.65 73.44-30.95 71.59-30.95L71.59-30.95Q69.75-30.95 68.69-30.9 67.64-30.85 66.8-30.75L66.8-30.75ZM94.14 0L94.14-34.65 98.99-34.65 98.99 0 94.14 0ZM106.19-17.35L106.19-17.35Q106.19-21.8 107.52-25.2 108.84-28.6 111.12-30.88 113.39-33.15 116.42-34.3 119.44-35.45 122.84-35.45L122.84-35.45Q126.19-35.45 129.17-34.3 132.14-33.15 134.39-30.88 136.64-28.6 137.97-25.2 139.29-21.8 139.29-17.35L139.29-17.35Q139.29-12.9 137.97-9.5 136.64-6.1 134.39-3.83 132.14-1.55 129.17-0.4 126.19 0.75 122.84 0.75L122.84 0.75Q119.44 0.75 116.42-0.4 113.39-1.55 111.12-3.83 108.84-6.1 107.52-9.5 106.19-12.9 106.19-17.35ZM111.29-17.35L111.29-17.35Q111.29-14.2 112.09-11.63 112.89-9.05 114.37-7.25 115.84-5.45 117.97-4.48 120.09-3.5 122.74-3.5L122.74-3.5Q125.39-3.5 127.49-4.48 129.59-5.45 131.06-7.25 132.54-9.05 133.34-11.63 134.14-14.2 134.14-17.35L134.14-17.35Q134.14-20.5 133.34-23.08 132.54-25.65 131.06-27.45 129.59-29.25 127.49-30.23 125.39-31.2 122.74-31.2L122.74-31.2Q120.09-31.2 117.97-30.23 115.84-29.25 114.37-27.45 112.89-25.65 112.09-23.08 111.29-20.5 111.29-17.35ZM167.24-35L167.24-35Q174.54-35 178.46-32.23 182.39-29.45 182.39-23.95L182.39-23.95Q182.39-20.95 181.31-18.82 180.24-16.7 178.21-15.38 176.19-14.05 173.29-13.45 170.39-12.85 166.74-12.85L166.74-12.85 162.89-12.85 162.89 0 158.04 0 158.04-34.15Q160.09-34.65 162.61-34.83 165.14-35 167.24-35ZM167.64-30.75L167.64-30.75Q164.54-30.75 162.89-30.6L162.89-30.6 162.89-17 166.54-17Q169.04-17 171.04-17.32 173.04-17.65 174.41-18.43 175.79-19.2 176.54-20.55 177.29-21.9 177.29-24L177.29-24Q177.29-26 176.51-27.3 175.74-28.6 174.41-29.38 173.09-30.15 171.34-30.45 169.59-30.75 167.64-30.75ZM214.38 0L209.08 0Q208.23-2.25 207.48-4.42 206.73-6.6 205.93-8.85L205.93-8.85 190.23-8.85 187.08 0 182.03 0Q184.03-5.5 185.78-10.18 187.53-14.85 189.21-19.05 190.88-23.25 192.53-27.08 194.18-30.9 195.98-34.65L195.98-34.65 200.43-34.65Q202.23-30.9 203.88-27.08 205.53-23.25 207.21-19.05 208.88-14.85 210.63-10.18 212.38-5.5 214.38 0L214.38 0ZM191.63-12.85L204.53-12.85Q202.93-17.2 201.36-21.28 199.78-25.35 198.08-29.1L198.08-29.1Q196.33-25.35 194.76-21.28 193.18-17.2 191.63-12.85L191.63-12.85ZM228.28-35L228.28-35Q235.58-35 239.51-32.23 243.43-29.45 243.43-23.95L243.43-23.95Q243.43-20.95 242.36-18.82 241.28-16.7 239.26-15.38 237.23-14.05 234.33-13.45 231.43-12.85 227.78-12.85L227.78-12.85 223.93-12.85 223.93 0 219.08 0 219.08-34.15Q221.13-34.65 223.66-34.83 226.18-35 228.28-35ZM228.68-30.75L228.68-30.75Q225.58-30.75 223.93-30.6L223.93-30.6 223.93-17 227.58-17Q230.08-17 232.08-17.32 234.08-17.65 235.46-18.43 236.83-19.2 237.58-20.55 238.33-21.9 238.33-24L238.33-24Q238.33-26 237.56-27.3 236.78-28.6 235.46-29.38 234.13-30.15 232.38-30.45 230.63-30.75 228.68-30.75ZM275.43 0L270.13 0Q269.28-2.25 268.53-4.42 267.78-6.6 266.98-8.85L266.98-8.85 251.28-8.85 248.13 0 243.08 0Q245.08-5.5 246.83-10.18 248.58-14.85 250.25-19.05 251.93-23.25 253.58-27.08 255.23-30.9 257.03-34.65L257.03-34.65 261.48-34.65Q263.28-30.9 264.93-27.08 266.58-23.25 268.25-19.05 269.93-14.85 271.68-10.18 273.43-5.5 275.43 0L275.43 0ZM252.68-12.85L265.58-12.85Q263.98-17.2 262.4-21.28 260.83-25.35 259.13-29.1L259.13-29.1Q257.38-25.35 255.8-21.28 254.23-17.2 252.68-12.85L252.68-12.85ZM298.23-34.65L298.23-11.15Q298.23-8.65 297.7-6.5 297.18-4.35 295.85-2.73 294.53-1.1 292.3-0.18 290.08 0.75 286.73 0.75L286.73 0.75Q285.03 0.75 283.6 0.48 282.18 0.2 281.03-0.23 279.88-0.65 279.03-1.13 278.18-1.6 277.68-2.05L277.68-2.05 279.58-5.9Q280.63-5.15 282.3-4.33 283.98-3.5 286.48-3.5L286.48-3.5Q290.08-3.5 291.73-5.33 293.38-7.15 293.38-11.6L293.38-11.6 293.38-34.65 298.23-34.65ZM334.52 0L329.22 0Q328.37-2.25 327.62-4.42 326.87-6.6 326.07-8.85L326.07-8.85 310.37-8.85 307.22 0 302.17 0Q304.17-5.5 305.92-10.18 307.67-14.85 309.35-19.05 311.02-23.25 312.67-27.08 314.32-30.9 316.12-34.65L316.12-34.65 320.57-34.65Q322.37-30.9 324.02-27.08 325.67-23.25 327.35-19.05 329.02-14.85 330.77-10.18 332.52-5.5 334.52 0L334.52 0ZM311.77-12.85L324.67-12.85Q323.07-17.2 321.5-21.28 319.92-25.35 318.22-29.1L318.22-29.1Q316.47-25.35 314.9-21.28 313.32-17.2 311.77-12.85L311.77-12.85ZM367.02 0L362.97 0Q361.87-1.85 360.44-4.15 359.02-6.45 357.37-8.93 355.72-11.4 353.94-13.95 352.17-16.5 350.42-18.88 348.67-21.25 347.02-23.35 345.37-25.45 343.97-27.05L343.97-27.05 343.97 0 339.22 0 339.22-34.65 343.07-34.65Q345.42-32.15 348.1-28.83 350.77-25.5 353.4-21.98 356.02-18.45 358.35-15.05 360.67-11.65 362.27-9L362.27-9 362.27-34.65 367.02-34.65 367.02 0ZM375.62 0L375.62-34.65 380.47-34.65 380.47 0 375.62 0Z" opacity="1" transform="matrix(1,0,0,1,0,0)" fill="#000000" class="wordmark-text-0" data-fill-palette-color="primary" id="text-0"></path></svg></g></svg></g></svg></g></svg></g></svg></g></svg></g></svg></g></svg></g><defs></defs></svg><rect width="375.07953" height="86.90449" fill="none" stroke="none" visibility="hidden"></rect></g></svg></g></svg>