<svg xmlns="http://www.w3.org/2000/svg" version="1.1" xmlns:xlink="http://www.w3.org/1999/xlink" xmlns:svgjs="http://svgjs.dev/svgjs" width="1000" height="204" viewBox="0 0 1000 204"><g transform="matrix(1,0,0,1,-0.6060604087501815,-0.36543529612411874)"><svg viewBox="0 0 396 81" data-background-color="#ffffff" preserveAspectRatio="xMidYMid meet" height="204" width="1000" xmlns="http://www.w3.org/2000/svg" xmlns:xlink="http://www.w3.org/1999/xlink"><g id="tight-bounds" transform="matrix(1,0,0,1,0.24000007813503998,0.14509930875516375)"><svg viewBox="0 0 395.52 80.70980138248966" height="80.70980138248966" width="395.52"><g><svg viewBox="0 0 502.970334146898 102.63611390139712" height="80.70980138248966" width="395.52"><g><rect width="3.4322066568696656" height="74.63769498618241" x="404.50483418028705" y="13.999209457607357" fill="#000000" opacity="1" stroke-width="0" stroke="transparent" fill-opacity="1" class="rect-o-0" data-fill-palette-color="primary" rx="1%" id="o-0" data-palette-color="#000000"></rect></g><g transform="matrix(1,0,0,1,0,14.18487536553318)"><svg viewBox="0 0 395.52 74.26636317033076" height="74.26636317033076" width="395.52"><g id="textblocktransform"><svg viewBox="0 0 395.52 74.26636317033076" height="74.26636317033076" width="395.52" id="textblock"><g><svg viewBox="0 0 395.52 38.059074960127596" height="38.059074960127596" width="395.52"><g transform="matrix(1,0,0,1,0,0)"><svg width="395.52" viewBox="4.300000190734863 -35.45000076293945 379.6199951171875 36.20000076293945" height="38.059074960127596" data-palette-color="#000000"><g class="wordmark-text-0" data-fill-palette-color="primary" id="text-0"><path d="M9.15 0L4.3 0 4.3-34.65 25.2-34.65 25.2-30.5 9.15-30.5 9.15-20.05 23.4-20.05 23.4-15.95 9.15-15.95 9.15 0ZM59.6 0L54.3 0Q53.45-2.25 52.7-4.42 51.95-6.6 51.15-8.85L51.15-8.85 35.45-8.85 32.3 0 27.25 0Q29.25-5.5 31-10.18 32.75-14.85 34.42-19.05 36.1-23.25 37.75-27.08 39.4-30.9 41.2-34.65L41.2-34.65 45.65-34.65Q47.45-30.9 49.1-27.08 50.75-23.25 52.42-19.05 54.1-14.85 55.85-10.18 57.6-5.5 59.6 0L59.6 0ZM36.85-12.85L49.75-12.85Q48.15-17.2 46.57-21.28 45-25.35 43.3-29.1L43.3-29.1Q41.55-25.35 39.97-21.28 38.4-17.2 36.85-12.85L36.85-12.85ZM73.65 0.3L73.65 0.3Q72.59 0.3 71.37 0.25 70.15 0.2 68.92 0.1 67.7 0 66.5-0.15 65.3-0.3 64.3-0.55L64.3-0.55 64.3-34.15Q65.3-34.4 66.5-34.55 67.7-34.7 68.92-34.8 70.15-34.9 71.34-34.95 72.55-35 73.59-35L73.59-35Q76.59-35 79.22-34.55 81.84-34.1 83.77-33.02 85.7-31.95 86.8-30.2 87.9-28.45 87.9-25.9L87.9-25.9Q87.9-23.05 86.55-21.23 85.2-19.4 82.95-18.5L82.95-18.5Q86-17.6 87.8-15.65 89.59-13.7 89.59-10.15L89.59-10.15Q89.59-4.95 85.77-2.33 81.95 0.3 73.65 0.3ZM75.34-16.15L69.09-16.15 69.09-3.95Q69.65-3.9 70.4-3.85L70.4-3.85Q71.05-3.8 71.92-3.78 72.8-3.75 73.95-3.75L73.95-3.75Q76.09-3.75 78.02-4.03 79.95-4.3 81.4-5 82.84-5.7 83.72-6.95 84.59-8.2 84.59-10.1L84.59-10.1Q84.59-11.8 83.95-12.98 83.3-14.15 82.07-14.85 80.84-15.55 79.15-15.85 77.45-16.15 75.34-16.15L75.34-16.15ZM69.09-30.75L69.09-20.05 74.2-20.05Q76-20.05 77.59-20.3 79.2-20.55 80.37-21.2 81.55-21.85 82.22-22.9 82.9-23.95 82.9-25.55L82.9-25.55Q82.9-27.05 82.2-28.08 81.5-29.1 80.27-29.73 79.05-30.35 77.4-30.65 75.75-30.95 73.9-30.95L73.9-30.95Q72.05-30.95 71-30.9 69.95-30.85 69.09-30.75L69.09-30.75ZM96.44 0L96.44-34.65 101.29-34.65 101.29 0 96.44 0ZM108.49-17.35L108.49-17.35Q108.49-21.8 109.82-25.2 111.14-28.6 113.42-30.88 115.69-33.15 118.72-34.3 121.74-35.45 125.14-35.45L125.14-35.45Q128.49-35.45 131.47-34.3 134.44-33.15 136.69-30.88 138.94-28.6 140.27-25.2 141.59-21.8 141.59-17.35L141.59-17.35Q141.59-12.9 140.27-9.5 138.94-6.1 136.69-3.83 134.44-1.55 131.47-0.4 128.49 0.75 125.14 0.75L125.14 0.75Q121.74 0.75 118.72-0.4 115.69-1.55 113.42-3.83 111.14-6.1 109.82-9.5 108.49-12.9 108.49-17.35ZM113.59-17.35L113.59-17.35Q113.59-14.2 114.39-11.63 115.19-9.05 116.67-7.25 118.14-5.45 120.27-4.48 122.39-3.5 125.04-3.5L125.04-3.5Q127.69-3.5 129.79-4.48 131.89-5.45 133.37-7.25 134.84-9.05 135.64-11.63 136.44-14.2 136.44-17.35L136.44-17.35Q136.44-20.5 135.64-23.08 134.84-25.65 133.37-27.45 131.89-29.25 129.79-30.23 127.69-31.2 125.04-31.2L125.04-31.2Q122.39-31.2 120.27-30.23 118.14-29.25 116.67-27.45 115.19-25.65 114.39-23.08 113.59-20.5 113.59-17.35Z" fill="#000000" data-fill-palette-color="primary"></path><path d="M166.64-35L166.64-35Q173.94-35 177.86-32.23 181.79-29.45 181.79-23.95L181.79-23.95Q181.79-20.95 180.71-18.82 179.64-16.7 177.61-15.38 175.59-14.05 172.69-13.45 169.79-12.85 166.14-12.85L166.14-12.85 162.29-12.85 162.29 0 157.44 0 157.44-34.15Q159.49-34.65 162.01-34.83 164.54-35 166.64-35ZM167.04-30.75L167.04-30.75Q163.94-30.75 162.29-30.6L162.29-30.6 162.29-17 165.94-17Q168.44-17 170.44-17.32 172.44-17.65 173.81-18.43 175.19-19.2 175.94-20.55 176.69-21.9 176.69-24L176.69-24Q176.69-26 175.91-27.3 175.14-28.6 173.81-29.38 172.49-30.15 170.74-30.45 168.99-30.75 167.04-30.75ZM216.29 0L210.99 0Q210.14-2.25 209.39-4.42 208.64-6.6 207.84-8.85L207.84-8.85 192.14-8.85 188.99 0 183.94 0Q185.94-5.5 187.69-10.18 189.44-14.85 191.11-19.05 192.79-23.25 194.44-27.08 196.09-30.9 197.89-34.65L197.89-34.65 202.34-34.65Q204.14-30.9 205.79-27.08 207.44-23.25 209.11-19.05 210.79-14.85 212.54-10.18 214.29-5.5 216.29 0L216.29 0ZM193.54-12.85L206.44-12.85Q204.84-17.2 203.26-21.28 201.69-25.35 199.99-29.1L199.99-29.1Q198.24-25.35 196.66-21.28 195.09-17.2 193.54-12.85L193.54-12.85ZM230.18-35L230.18-35Q237.48-35 241.41-32.23 245.33-29.45 245.33-23.95L245.33-23.95Q245.33-20.95 244.26-18.82 243.18-16.7 241.16-15.38 239.13-14.05 236.23-13.45 233.33-12.85 229.68-12.85L229.68-12.85 225.83-12.85 225.83 0 220.98 0 220.98-34.15Q223.03-34.65 225.56-34.83 228.08-35 230.18-35ZM230.58-30.75L230.58-30.75Q227.48-30.75 225.83-30.6L225.83-30.6 225.83-17 229.48-17Q231.98-17 233.98-17.32 235.98-17.65 237.36-18.43 238.73-19.2 239.48-20.55 240.23-21.9 240.23-24L240.23-24Q240.23-26 239.46-27.3 238.68-28.6 237.36-29.38 236.03-30.15 234.28-30.45 232.53-30.75 230.58-30.75ZM279.83 0L274.53 0Q273.68-2.25 272.93-4.42 272.18-6.6 271.38-8.85L271.38-8.85 255.68-8.85 252.53 0 247.48 0Q249.48-5.5 251.23-10.18 252.98-14.85 254.66-19.05 256.33-23.25 257.98-27.08 259.63-30.9 261.43-34.65L261.43-34.65 265.88-34.65Q267.68-30.9 269.33-27.08 270.98-23.25 272.65-19.05 274.33-14.85 276.08-10.18 277.83-5.5 279.83 0L279.83 0ZM257.08-12.85L269.98-12.85Q268.38-17.2 266.81-21.28 265.23-25.35 263.53-29.1L263.53-29.1Q261.78-25.35 260.21-21.28 258.63-17.2 257.08-12.85L257.08-12.85ZM301.18-34.65L301.18-11.15Q301.18-8.65 300.65-6.5 300.13-4.35 298.8-2.73 297.48-1.1 295.25-0.18 293.03 0.75 289.68 0.75L289.68 0.75Q287.98 0.75 286.55 0.48 285.13 0.2 283.98-0.23 282.83-0.65 281.98-1.13 281.13-1.6 280.63-2.05L280.63-2.05 282.53-5.9Q283.58-5.15 285.25-4.33 286.93-3.5 289.43-3.5L289.43-3.5Q293.03-3.5 294.68-5.33 296.33-7.15 296.33-11.6L296.33-11.6 296.33-34.65 301.18-34.65ZM337.98 0L332.68 0Q331.83-2.25 331.08-4.42 330.33-6.6 329.53-8.85L329.53-8.85 313.83-8.85 310.68 0 305.63 0Q307.63-5.5 309.38-10.18 311.13-14.85 312.8-19.05 314.48-23.25 316.13-27.08 317.78-30.9 319.58-34.65L319.58-34.65 324.03-34.65Q325.83-30.9 327.48-27.08 329.13-23.25 330.8-19.05 332.48-14.85 334.23-10.18 335.98-5.5 337.98 0L337.98 0ZM315.23-12.85L328.13-12.85Q326.53-17.2 324.95-21.28 323.38-25.35 321.68-29.1L321.68-29.1Q319.93-25.35 318.35-21.28 316.78-17.2 315.23-12.85L315.23-12.85ZM370.47 0L366.42 0Q365.32-1.85 363.9-4.15 362.47-6.45 360.82-8.93 359.17-11.4 357.4-13.95 355.62-16.5 353.87-18.88 352.12-21.25 350.47-23.35 348.82-25.45 347.42-27.05L347.42-27.05 347.42 0 342.67 0 342.67-34.65 346.52-34.65Q348.87-32.15 351.55-28.83 354.22-25.5 356.85-21.98 359.47-18.45 361.8-15.05 364.12-11.65 365.72-9L365.72-9 365.72-34.65 370.47-34.65 370.47 0ZM379.07 0L379.07-34.65 383.92-34.65 383.92 0 379.07 0Z" fill="#000000" data-fill-palette-color="primary"></path></g></svg></g></svg></g><g transform="matrix(1,0,0,1,163.310208,47.04390914041468)"><svg viewBox="0 0 232.209792 27.222454029916086" height="27.222454029916086" width="232.209792"><g transform="matrix(1,0,0,1,0,0)"><svg width="232.209792" viewBox="1.7000000476837158 -38.79999923706055 411.1099853515625 48.19999694824219" height="27.222454029916086" data-palette-color="#000000"><path d="M11.95-2.2L11.95-2.2Q16-2.2 18.25-3.68 20.5-5.15 20.5-8.45L20.5-8.45Q20.5-10.35 19.78-11.63 19.05-12.9 17.85-13.78 16.65-14.65 15.1-15.28 13.55-15.9 11.85-16.6L11.85-16.6Q9.7-17.45 8-18.35 6.3-19.25 5.1-20.38 3.9-21.5 3.28-22.95 2.65-24.4 2.65-26.35L2.65-26.35Q2.65-30.8 5.6-33.1 8.55-35.4 13.8-35.4L13.8-35.4Q15.2-35.4 16.55-35.2 17.9-35 19.07-34.68 20.25-34.35 21.23-33.95 22.2-33.55 22.85-33.1L22.85-33.1 21.65-30.25Q20.2-31.25 18.13-31.85 16.05-32.45 13.65-32.45L13.65-32.45Q12-32.45 10.63-32.13 9.25-31.8 8.25-31.08 7.25-30.35 6.68-29.25 6.1-28.15 6.1-26.6L6.1-26.6Q6.1-25 6.7-23.9 7.3-22.8 8.38-22 9.45-21.2 10.9-20.55 12.35-19.9 14.05-19.2L14.05-19.2Q16.1-18.35 17.93-17.5 19.75-16.65 21.1-15.5 22.45-14.35 23.25-12.7 24.05-11.05 24.05-8.65L24.05-8.65Q24.05-3.95 20.78-1.6 17.5 0.75 11.9 0.75L11.9 0.75Q9.9 0.75 8.25 0.5 6.6 0.25 5.3-0.13 4-0.5 3.1-0.9 2.2-1.3 1.7-1.6L1.7-1.6 2.8-4.55Q3.3-4.25 4.15-3.85 5-3.45 6.15-3.08 7.3-2.7 8.75-2.45 10.2-2.2 11.95-2.2ZM52.2-12.9L52.2-12.9Q52.2-9.85 51.32-7.35 50.45-4.85 48.87-3.1 47.3-1.35 45.15-0.38 43 0.6 40.4 0.6L40.4 0.6Q37.8 0.6 35.65-0.38 33.5-1.35 31.92-3.1 30.35-4.85 29.47-7.35 28.6-9.85 28.6-12.9L28.6-12.9Q28.6-15.95 29.47-18.45 30.35-20.95 31.92-22.73 33.5-24.5 35.65-25.48 37.8-26.45 40.4-26.45L40.4-26.45Q43-26.45 45.15-25.48 47.3-24.5 48.87-22.73 50.45-20.95 51.32-18.45 52.2-15.95 52.2-12.9ZM48.75-12.9L48.75-12.9Q48.75-17.75 46.5-20.63 44.25-23.5 40.4-23.5L40.4-23.5Q36.55-23.5 34.3-20.63 32.05-17.75 32.05-12.9L32.05-12.9Q32.05-8.05 34.3-5.2 36.55-2.35 40.4-2.35L40.4-2.35Q44.25-2.35 46.5-5.2 48.75-8.05 48.75-12.9ZM68.75-38.8L68.75-38.8Q70.85-38.8 72.17-38.48 73.5-38.15 73.9-37.9L73.9-37.9 73.25-35.1Q72.7-35.35 71.62-35.63 70.55-35.9 68.9-35.9L68.9-35.9Q65.45-35.9 63.97-34.15 62.5-32.4 62.5-28.55L62.5-28.55 62.5-25.85 72.9-25.85 72.9-23.1 62.5-23.1 62.5 0 59.25 0 59.25-28.65Q59.25-33.7 61.57-36.25 63.9-38.8 68.75-38.8ZM81.09-34.05L81.09-25.85 91.39-25.85 91.39-23.1 81.09-23.1 81.09-9.35Q81.09-7.15 81.47-5.78 81.84-4.4 82.54-3.65 83.24-2.9 84.24-2.65 85.24-2.4 86.44-2.4L86.44-2.4Q88.49-2.4 89.74-2.88 90.99-3.35 91.69-3.75L91.69-3.75 92.49-1.05Q91.79-0.6 90.04-0.03 88.29 0.55 86.24 0.55L86.24 0.55Q83.84 0.55 82.22-0.08 80.59-0.7 79.62-1.98 78.64-3.25 78.24-5.15 77.84-7.05 77.84-9.65L77.84-9.65 77.84-33.45 81.09-34.05ZM111.24-25.85L114.04-25.85Q114.49-23.35 115.22-20.53 115.94-17.7 116.81-14.78 117.69-11.85 118.67-9 119.64-6.15 120.64-3.65L120.64-3.65Q121.49-5.55 122.44-8.28 123.39-11 124.34-14.03 125.29-17.05 126.12-20.13 126.94-23.2 127.49-25.85L127.49-25.85 130.69-25.85Q128.89-18.25 126.77-11.95 124.64-5.65 122.09 0L122.09 0 119.04 0Q118.29-1.75 117.47-3.93 116.64-6.1 115.77-8.58 114.89-11.05 114.06-13.78 113.24-16.5 112.49-19.35L112.49-19.35Q111.74-16.5 110.92-13.78 110.09-11.05 109.22-8.58 108.34-6.1 107.52-3.93 106.69-1.75 105.94 0L105.94 0 102.84 0Q100.29-5.65 98.17-11.95 96.04-18.25 94.24-25.85L94.24-25.85 97.69-25.85Q98.24-23.2 99.06-20.13 99.89-17.05 100.84-14.03 101.79-11 102.77-8.3 103.74-5.6 104.59-3.7L104.59-3.7Q105.54-6.2 106.52-9.05 107.49-11.9 108.34-14.8 109.19-17.7 109.94-20.53 110.69-23.35 111.24-25.85L111.24-25.85ZM144.29-2.35L144.29-2.35Q146.19-2.35 147.61-2.48 149.04-2.6 150.04-2.8L150.04-2.8 150.04-11.9Q149.49-12.15 148.29-12.43 147.09-12.7 144.99-12.7L144.99-12.7Q143.79-12.7 142.49-12.53 141.19-12.35 140.09-11.78 138.99-11.2 138.29-10.2 137.59-9.2 137.59-7.55L137.59-7.55Q137.59-6.1 138.06-5.1 138.54-4.1 139.41-3.5 140.29-2.9 141.51-2.63 142.74-2.35 144.29-2.35ZM143.99-26.45L143.99-26.45Q146.54-26.45 148.31-25.73 150.09-25 151.19-23.73 152.29-22.45 152.79-20.7 153.29-18.95 153.29-16.9L153.29-16.9 153.29-0.6Q152.79-0.45 151.84-0.28 150.89-0.1 149.64 0.1 148.39 0.3 146.86 0.43 145.34 0.55 143.74 0.55L143.74 0.55Q141.69 0.55 139.96 0.1 138.24-0.35 136.96-1.33 135.69-2.3 134.96-3.83 134.24-5.35 134.24-7.55L134.24-7.55Q134.24-9.65 135.04-11.15 135.84-12.65 137.29-13.63 138.74-14.6 140.74-15.05 142.74-15.5 145.09-15.5L145.09-15.5Q145.79-15.5 146.56-15.43 147.34-15.35 148.06-15.23 148.79-15.1 149.31-14.98 149.84-14.85 150.04-14.75L150.04-14.75 150.04-16.35Q150.04-17.7 149.84-18.98 149.64-20.25 148.96-21.28 148.29-22.3 147.06-22.93 145.84-23.55 143.84-23.55L143.84-23.55Q140.99-23.55 139.59-23.15 138.19-22.75 137.54-22.5L137.54-22.5 137.09-25.35Q137.94-25.75 139.71-26.1 141.49-26.45 143.99-26.45ZM170.39-26.35L170.39-26.35Q171.99-26.35 173.41-26.1 174.84-25.85 175.39-25.6L175.39-25.6 174.74-22.8Q174.34-23 173.11-23.23 171.89-23.45 169.89-23.45L169.89-23.45Q167.79-23.45 166.51-23.15 165.24-22.85 164.84-22.65L164.84-22.65 164.84 0 161.59 0 161.59-24.65Q162.84-25.2 165.04-25.78 167.24-26.35 170.39-26.35ZM178.73-12.95L178.73-12.95Q178.73-16.35 179.71-18.88 180.68-21.4 182.26-23.1 183.83-24.8 185.86-25.63 187.88-26.45 190.03-26.45L190.03-26.45Q194.78-26.45 197.61-23.35 200.43-20.25 200.43-13.8L200.43-13.8Q200.43-13.4 200.41-13 200.38-12.6 200.33-12.25L200.33-12.25 182.18-12.25Q182.33-7.5 184.53-4.95 186.73-2.4 191.53-2.4L191.53-2.4Q194.18-2.4 195.73-2.9 197.28-3.4 197.98-3.75L197.98-3.75 198.58-0.95Q197.88-0.55 195.96 0 194.03 0.55 191.43 0.55L191.43 0.55Q188.03 0.55 185.63-0.45 183.23-1.45 181.68-3.25 180.13-5.05 179.43-7.53 178.73-10 178.73-12.95ZM182.28-15L197.08-15Q196.98-19.05 195.18-21.3 193.38-23.55 190.08-23.55L190.08-23.55Q188.33-23.55 186.96-22.85 185.58-22.15 184.56-20.98 183.53-19.8 182.96-18.25 182.38-16.7 182.28-15L182.28-15ZM240.58 0L219.28 0 219.28-34.65 239.28-34.65 239.28-31.7 222.68-31.7 222.68-19.65 237.48-19.65 237.48-16.75 222.68-16.75 222.68-2.95 240.58-2.95 240.58 0ZM246.83 0L246.83-24.95Q248.28-25.35 250.73-25.85 253.18-26.35 256.73-26.35L256.73-26.35Q259.68-26.35 261.65-25.5 263.63-24.65 264.8-23.08 265.98-21.5 266.48-19.3 266.98-17.1 266.98-14.45L266.98-14.45 266.98 0 263.73 0 263.73-13.4Q263.73-16.15 263.35-18.05 262.98-19.95 262.1-21.15 261.23-22.35 259.8-22.88 258.38-23.4 256.23-23.4L256.23-23.4Q253.93-23.4 252.25-23.15 250.58-22.9 250.08-22.7L250.08-22.7 250.08 0 246.83 0ZM292.12-1.3L292.12-3Q291.82-2.75 291.22-2.43 290.62-2.1 289.75-1.75 288.87-1.4 287.75-1.18 286.62-0.95 285.22-0.95L285.22-0.95Q282.97-0.95 280.87-1.65 278.77-2.35 277.2-3.85 275.62-5.35 274.67-7.73 273.72-10.1 273.72-13.5L273.72-13.5Q273.72-16.25 274.57-18.6 275.42-20.95 277-22.68 278.57-24.4 280.85-25.38 283.12-26.35 285.97-26.35L285.97-26.35Q289.57-26.35 291.75-25.88 293.92-25.4 295.32-24.95L295.32-24.95 295.32-1.35Q295.32 4.45 292.32 6.93 289.32 9.4 283.27 9.4L283.27 9.4Q280.77 9.4 278.75 9.03 276.72 8.65 275.27 8.15L275.27 8.15 275.92 5.2Q277.12 5.75 279.2 6.15 281.27 6.55 283.37 6.55L283.37 6.55Q287.97 6.55 290.05 4.78 292.12 3 292.12-1.3L292.12-1.3ZM292.07-6.05L292.07-22.7Q291.22-22.95 289.87-23.18 288.52-23.4 286.02-23.4L286.02-23.4Q283.92-23.4 282.3-22.68 280.67-21.95 279.52-20.63 278.37-19.3 277.77-17.48 277.17-15.65 277.17-13.45L277.17-13.45Q277.17-10.9 277.87-9.08 278.57-7.25 279.7-6.1 280.82-4.95 282.27-4.42 283.72-3.9 285.22-3.9L285.22-3.9Q287.42-3.9 289.25-4.55 291.07-5.2 292.07-6.05L292.07-6.05ZM307.17-25.85L307.17 0 303.92 0 303.92-25.85 307.17-25.85ZM307.92-33.65L307.92-33.65Q307.92-32.5 307.22-31.83 306.52-31.15 305.52-31.15L305.52-31.15Q304.52-31.15 303.82-31.83 303.12-32.5 303.12-33.65L303.12-33.65Q303.12-34.8 303.82-35.48 304.52-36.15 305.52-36.15L305.52-36.15Q306.52-36.15 307.22-35.48 307.92-34.8 307.92-33.65ZM315.77 0L315.77-24.95Q317.22-25.35 319.67-25.85 322.12-26.35 325.67-26.35L325.67-26.35Q328.62-26.35 330.59-25.5 332.57-24.65 333.74-23.08 334.92-21.5 335.42-19.3 335.92-17.1 335.92-14.45L335.92-14.45 335.92 0 332.67 0 332.67-13.4Q332.67-16.15 332.29-18.05 331.92-19.95 331.04-21.15 330.17-22.35 328.74-22.88 327.32-23.4 325.17-23.4L325.17-23.4Q322.87-23.4 321.19-23.15 319.52-22.9 319.02-22.7L319.02-22.7 319.02 0 315.77 0ZM342.67-12.95L342.67-12.95Q342.67-16.35 343.64-18.88 344.62-21.4 346.19-23.1 347.77-24.8 349.79-25.63 351.81-26.45 353.97-26.45L353.97-26.45Q358.72-26.45 361.54-23.35 364.37-20.25 364.37-13.8L364.37-13.8Q364.37-13.4 364.34-13 364.31-12.6 364.27-12.25L364.27-12.25 346.12-12.25Q346.27-7.5 348.47-4.95 350.67-2.4 355.47-2.4L355.47-2.4Q358.12-2.4 359.67-2.9 361.22-3.4 361.92-3.75L361.92-3.75 362.52-0.95Q361.81-0.55 359.89 0 357.97 0.55 355.37 0.55L355.37 0.55Q351.97 0.55 349.56-0.45 347.17-1.45 345.62-3.25 344.06-5.05 343.37-7.53 342.67-10 342.67-12.95ZM346.22-15L361.02-15Q360.92-19.05 359.12-21.3 357.31-23.55 354.02-23.55L354.02-23.55Q352.27-23.55 350.89-22.85 349.52-22.15 348.49-20.98 347.47-19.8 346.89-18.25 346.31-16.7 346.22-15L346.22-15ZM370.06-12.95L370.06-12.95Q370.06-16.35 371.04-18.88 372.01-21.4 373.59-23.1 375.16-24.8 377.19-25.63 379.21-26.45 381.36-26.45L381.36-26.45Q386.11-26.45 388.94-23.35 391.76-20.25 391.76-13.8L391.76-13.8Q391.76-13.4 391.74-13 391.71-12.6 391.66-12.25L391.66-12.25 373.51-12.25Q373.66-7.5 375.86-4.95 378.06-2.4 382.86-2.4L382.86-2.4Q385.51-2.4 387.06-2.9 388.61-3.4 389.31-3.75L389.31-3.75 389.91-0.95Q389.21-0.55 387.29 0 385.36 0.55 382.76 0.55L382.76 0.55Q379.36 0.55 376.96-0.45 374.56-1.45 373.01-3.25 371.46-5.05 370.76-7.53 370.06-10 370.06-12.95ZM373.61-15L388.41-15Q388.31-19.05 386.51-21.3 384.71-23.55 381.41-23.55L381.41-23.55Q379.66-23.55 378.29-22.85 376.91-22.15 375.89-20.98 374.86-19.8 374.29-18.25 373.71-16.7 373.61-15L373.61-15ZM407.81-26.35L407.81-26.35Q409.41-26.35 410.83-26.1 412.26-25.85 412.81-25.6L412.81-25.6 412.16-22.8Q411.76-23 410.53-23.23 409.31-23.45 407.31-23.45L407.31-23.45Q405.21-23.45 403.94-23.15 402.66-22.85 402.26-22.65L402.26-22.65 402.26 0 399.01 0 399.01-24.65Q400.26-25.2 402.46-25.78 404.66-26.35 407.81-26.35Z" opacity="1" transform="matrix(1,0,0,1,0,0)" fill="#000000" class="slogan-text-1" data-fill-palette-color="secondary" id="text-1"></path></svg></g></svg></g></svg></g></svg></g><g transform="matrix(1,0,0,1,416.92187501744377,0)"><svg viewBox="0 0 86.04845912945414 102.63611390139712" height="102.63611390139712" width="86.04845912945414"><g><svg xmlns="http://www.w3.org/2000/svg" xmlns:xlink="http://www.w3.org/1999/xlink" version="1.1" x="0" y="0" viewBox="90 58 332 396" enable-background="new 0 0 512 512" xml:space="preserve" height="102.63611390139712" width="86.04845912945414" class="icon-icon-0" data-fill-palette-color="accent" id="icon-0"><g fill="#000000" data-fill-palette-color="accent"><g fill="#000000" data-fill-palette-color="accent"><polygon points="186.634,189.317 153.292,256 186.634,322.683 197.366,317.317 166.708,256 197.366,194.683   " fill="#000000" data-fill-palette-color="accent"></polygon><polygon points="314.634,194.683 345.292,256 314.634,317.317 325.366,322.683 358.708,256 325.366,189.317   " fill="#000000" data-fill-palette-color="accent"></polygon><rect x="250" y="158.676" transform="matrix(-0.9864 -0.1644 0.1644 -0.9864 466.4307 550.603)" width="11.999" height="194.648" fill="#000000" data-fill-palette-color="accent"></rect><path d="M354.485 58H90v396h332V125.515L354.485 58zM358 78.485L401.515 122H358V78.485zM102 442V70h244v64h64v308H102z" fill="#000000" data-fill-palette-color="accent"></path></g></g></svg></g></svg></g></svg></g><defs></defs></svg><rect width="395.52" height="80.70980138248966" fill="none" stroke="none" visibility="hidden"></rect></g></svg></g></svg>